<svg version="1.1" id="Layer_1" xmlns="http://www.w3.org/2000/svg" xmlns:xlink="http://www.w3.org/1999/xlink" x="0px" y="0px"
	 width="100%" viewBox="0 0 2169 1165" enable-background="new 0 0 2169 1165" xml:space="preserve">
<path fill="#FFFFFF" opacity="1.000000" stroke="none" 
	d="
M2170.000000,948.000000 
	C2170.000000,1020.655151 2170.000000,1093.310303 2170.000000,1165.938965 
	C1447.000000,1165.938965 724.000000,1165.938965 1.000000,1165.938965 
	C1.000000,1095.889282 1.000000,1025.900513 1.303884,955.383240 
	C1.808580,954.799255 2.009390,954.743835 2.642257,954.767822 
	C28.660265,956.922302 54.220276,956.394714 80.061829,954.563416 
	C80.061829,838.788940 80.061829,723.494690 80.061829,608.330017 
	C80.794250,607.952637 81.213913,607.639771 81.684319,607.507874 
	C112.405373,598.895325 143.564133,594.370667 175.498077,598.076416 
	C197.451874,600.624084 217.661072,607.573181 234.270050,622.880371 
	C251.700058,638.944214 259.582886,658.476074 255.205414,682.178772 
	C251.095856,704.430908 237.903397,720.783752 220.237106,733.821899 
	C198.275894,750.029846 172.938416,758.566406 146.764984,764.917908 
	C135.199738,767.724426 123.531059,770.104736 110.949471,772.891052 
	C112.619339,774.974060 113.757957,776.676636 115.168236,778.112305 
	C153.242203,816.871948 191.361984,855.586548 229.429550,894.352356 
	C240.041977,905.159546 250.513718,916.104736 260.857361,927.282593 
	C255.469635,939.046570 250.096664,950.438232 245.130615,962.004578 
	C240.363831,973.106628 235.732986,984.286499 231.628448,995.643982 
	C229.974075,1000.221619 229.523605,1005.338806 229.195297,1010.255188 
	C228.969925,1013.630066 231.243896,1016.631348 234.783951,1015.265076 
	C239.088470,1013.603821 244.499146,1011.515320 246.586182,1007.947388 
	C258.297668,987.925537 269.152100,967.402405 280.613525,947.135620 
	C282.747040,948.893127 284.408966,950.797241 286.432037,952.168396 
	C288.235474,953.390564 290.402740,954.696228 292.470795,954.805664 
	C304.445404,955.439270 316.438354,956.061035 328.424774,956.054565 
	C344.323608,956.045959 360.222137,955.455994 377.661560,955.082886 
	C323.259735,899.666077 270.025482,845.438660 216.377853,790.790100 
	C218.703674,789.959534 220.234070,789.417847 221.761108,788.866882 
	C248.954605,779.055481 275.380920,767.701599 297.444397,748.411560 
	C316.887695,731.412354 331.437500,711.521301 333.665497,684.560852 
	C337.230103,641.426697 323.179108,606.236389 286.979309,581.311646 
	C262.772583,564.644470 235.058365,556.869263 206.482956,552.084106 
	C161.960846,544.628601 117.446533,547.610657 73.084068,553.654724 
	C49.350765,556.888184 25.776848,561.291504 1.849624,565.115967 
	C1.378830,565.043274 1.189415,565.021667 1.000000,565.000000 
	C1.000000,377.070801 1.000000,189.141571 1.000000,1.000000 
	C177.362656,1.000000 353.725403,1.000000 530.308838,1.323291 
	C516.392456,3.519083 502.757416,6.902184 490.564850,14.735466 
	C460.280029,34.192287 467.830994,68.924629 483.828125,86.365967 
	C483.823029,85.704361 483.883301,85.036385 483.814270,84.382050 
	C480.918915,56.931919 492.611816,38.410805 518.804871,29.558771 
	C540.694641,22.161053 563.190979,22.626221 585.512024,26.406805 
	C634.148865,34.644581 679.216309,52.644295 721.126343,78.482834 
	C734.508972,86.733551 746.691223,96.633324 755.539551,109.963524 
	C760.233093,117.034401 763.403748,124.681595 762.441650,133.414932 
	C761.006836,146.439209 752.401978,154.047119 741.705627,159.676651 
	C727.861450,166.962875 712.751648,169.389267 697.324585,169.930145 
	C670.888550,170.857025 645.341980,165.397614 620.094116,158.394806 
	C605.154175,154.251022 590.477783,149.187332 578.077148,139.417160 
	C573.643372,135.923904 568.850708,131.812271 570.444580,125.323547 
	C572.011292,118.945351 577.951050,117.237495 583.550415,116.030792 
	C596.684814,113.200241 609.733521,114.839890 622.697876,117.422798 
	C627.751343,118.429604 632.740173,119.761215 638.110779,121.028000 
	C637.775940,120.100624 637.739685,119.738846 637.547546,119.505203 
	C612.478882,89.016838 571.269043,87.476318 544.568970,101.894890 
	C533.620972,107.807045 529.512207,117.661621 531.874878,129.206421 
	C534.216858,140.650253 541.102356,149.344589 549.324097,157.118240 
	C563.974548,170.970245 581.436584,180.143311 600.162964,187.050415 
	C637.107544,200.677124 675.466797,205.185181 714.573853,203.740875 
	C734.457520,203.006531 753.985596,199.714233 772.200623,191.031219 
	C786.738647,184.100998 798.917419,174.577148 804.906616,159.018417 
	C811.559692,141.734787 807.356934,125.568771 798.596436,110.274597 
	C787.409424,90.744316 771.013367,76.132706 752.559204,63.833145 
	C705.494751,32.465027 652.750793,15.832742 597.836365,5.038836 
	C589.931641,3.485096 581.947449,2.336233 574.000000,1.000001 
	C1105.907227,1.000000 1637.814453,1.000000 2170.000000,1.000000 
	C2170.000000,256.695984 2170.000000,512.392029 2169.735840,768.260254 
	C2165.409180,738.977600 2149.477051,718.352356 2122.853516,705.623779 
	C2096.203369,692.882385 2067.626709,688.840454 2038.592041,687.108276 
	C2004.395752,685.068054 1970.317383,687.112000 1936.370239,691.231628 
	C1922.557617,692.907837 1908.857666,695.512207 1894.994141,697.712097 
	C1894.793213,711.729431 1898.695679,723.614624 1906.203613,734.493164 
	C1908.436646,737.728760 1910.826904,738.407654 1914.583130,737.642639 
	C1943.859863,731.679810 1973.436890,728.270691 2003.336548,728.238953 
	C2023.529541,728.217529 2043.587646,729.461731 2062.980957,735.960266 
	C2086.176270,743.732910 2098.342773,759.603943 2095.364014,791.303406 
	C2083.107178,790.711121 2070.840820,790.010498 2058.565430,789.544922 
	C2019.151978,788.049866 1979.947021,789.230469 1941.668579,800.089844 
	C1920.692383,806.040527 1901.098755,814.694397 1884.421997,829.356445 
	C1854.219849,855.909790 1858.687012,898.015747 1876.834717,918.966248 
	C1885.507690,928.978577 1895.992798,936.438354 1907.922729,941.927917 
	C1935.671265,954.696533 1965.384033,958.778992 1995.395508,959.729004 
	C2022.490601,960.586609 2049.743896,960.619873 2076.760742,958.687134 
	C2107.935791,956.457031 2138.928223,951.674316 2170.000000,948.000000 
M540.397888,203.135406 
	C488.855316,173.421265 455.448120,129.704803 439.341827,72.169075 
	C438.747223,73.347488 438.183838,74.321510 437.747559,75.349457 
	C423.068268,109.934235 412.440887,145.737015 406.211945,182.775482 
	C400.461731,216.967438 398.692810,251.269272 405.003052,285.651093 
	C415.200958,341.215363 445.051697,381.904327 496.189392,406.591125 
	C527.763611,421.833557 560.682861,428.465393 595.566162,421.900482 
	C626.894653,416.004608 654.721558,402.088318 680.446533,383.735321 
	C720.095886,355.448212 752.362061,319.935638 780.385437,280.400116 
	C795.612061,258.918304 809.509216,236.609940 819.593201,212.169678 
	C821.413269,207.758408 822.569153,202.987137 823.373230,198.269836 
	C824.015625,194.500870 821.834534,193.161011 818.667236,195.314072 
	C815.110107,197.732101 812.033569,200.845154 808.651306,203.534256 
	C781.491150,225.128021 749.605408,234.210709 715.879944,237.872849 
	C687.548645,240.949249 659.340088,239.072540 631.321350,233.991547 
	C599.722168,228.261246 569.170166,219.461838 540.397888,203.135406 
M618.869324,956.331543 
	C632.630127,952.545532 646.822021,949.879272 660.075806,944.776428 
	C712.785767,924.482300 744.781433,887.787048 747.351501,829.512634 
	C748.897278,794.463318 739.080933,763.034912 714.302246,737.264099 
	C698.663147,720.998962 679.536621,710.105225 658.661743,702.021423 
	C631.954224,691.678894 604.116821,687.423950 575.652832,686.582031 
	C535.668823,685.399231 496.496674,689.282471 459.451508,705.804688 
	C409.218201,728.208801 380.710754,765.751648 379.760986,821.858582 
	C379.078766,862.161499 393.139679,896.147034 425.210907,921.595764 
	C447.585205,939.349915 473.565826,949.363953 501.264008,954.959534 
	C540.040649,962.793274 579.017822,962.675720 618.869324,956.331543 
M1244.957520,789.500366 
	C1221.465088,790.733643 1198.190552,793.508240 1175.530151,800.082275 
	C1152.769409,806.685425 1131.296509,815.810242 1114.424194,833.277649 
	C1091.850220,856.647705 1090.096436,893.583557 1110.449097,918.536560 
	C1121.866089,932.533997 1137.073120,940.995605 1153.781616,946.869629 
	C1183.200684,957.211975 1213.903320,959.623596 1244.739014,960.652710 
	C1289.671631,962.152222 1334.231934,957.606934 1378.684082,951.702271 
	C1387.186523,950.572815 1395.661377,949.236328 1404.287964,947.974976 
	C1404.287964,946.525635 1404.287964,945.707581 1404.287964,944.889587 
	C1404.284668,891.237122 1404.342651,837.584473 1404.201904,783.932373 
	C1404.184082,777.139771 1403.656616,770.254150 1402.455322,763.575317 
	C1397.076660,733.671753 1378.536255,714.663513 1351.356567,703.112183 
	C1326.338989,692.479675 1299.874390,688.683167 1273.020142,687.127319 
	C1235.975830,684.981079 1199.101318,687.368530 1162.378784,692.262207 
	C1151.221924,693.749023 1140.160645,695.951904 1128.931152,697.847778 
	C1128.631714,711.769653 1132.608643,723.627258 1140.097168,734.508972 
	C1142.330322,737.753967 1144.744141,738.399170 1148.490112,737.636719 
	C1177.766724,731.677734 1207.342529,728.246582 1237.241943,728.245728 
	C1258.099243,728.245117 1278.810791,729.507080 1298.751953,736.651672 
	C1321.203125,744.695496 1332.147583,761.373413 1329.279907,790.416199 
	C1301.443481,790.075806 1273.666626,789.736145 1244.957520,789.500366 
M1734.790283,911.500000 
	C1734.790283,925.914856 1734.790283,940.329773 1734.790283,954.641846 
	C1760.474243,957.449341 1800.217041,957.159668 1810.784912,954.152344 
	C1810.839355,953.544006 1810.948486,952.893250 1810.948242,952.242493 
	C1810.936279,896.078308 1811.270996,839.909851 1810.607910,783.753296 
	C1810.468872,771.987793 1808.050903,759.791199 1804.259766,748.615356 
	C1794.134155,718.767212 1771.260864,702.183105 1741.914307,694.173584 
	C1706.994629,684.642883 1671.480225,683.610962 1635.986572,690.503235 
	C1604.606812,696.596619 1576.608276,709.809448 1553.937500,733.015320 
	C1553.563721,733.397766 1552.916748,733.513062 1553.178589,733.392029 
	C1550.820068,720.875061 1548.413574,708.498657 1546.205688,696.086914 
	C1545.706177,693.278931 1544.515137,692.158203 1541.656860,692.023071 
	C1533.007446,691.614014 1524.366333,690.482300 1515.727295,690.532715 
	C1504.148804,690.600281 1492.575073,691.511169 1481.095459,692.055359 
	C1481.095459,780.250549 1481.095459,867.469299 1481.095459,954.791687 
	C1506.544067,957.267822 1531.561768,957.452026 1556.895996,954.653198 
	C1556.895996,952.393799 1556.895020,950.582031 1556.895874,948.770264 
	C1556.918457,904.938904 1556.484375,861.100952 1557.115479,817.278381 
	C1557.580566,784.979736 1572.233276,760.300476 1601.306030,745.533325 
	C1629.165894,731.382202 1658.971436,728.769897 1689.364746,734.530701 
	C1709.698975,738.384949 1724.548340,750.041199 1729.988647,770.551819 
	C1732.939697,781.677795 1734.392456,793.479248 1734.581177,805.007812 
	C1735.156494,840.163635 1734.789917,875.334778 1734.790283,911.500000 
M962.564819,850.880920 
	C965.784790,852.604675 969.172485,854.076782 972.197266,856.093445 
	C990.881165,868.550049 991.263428,888.418762 973.130127,901.645569 
	C962.263000,909.572205 949.783569,913.584961 936.762573,915.934204 
	C903.377380,921.957520 870.058350,919.571899 836.846924,914.392334 
	C825.235718,912.581421 813.757263,909.919312 802.237366,907.649780 
	C791.852905,923.378174 784.766174,940.565796 785.363892,948.547119 
	C785.655457,948.678284 785.934814,948.862061 786.240417,948.933044 
	C819.789368,956.730347 853.842407,960.202393 888.229431,960.803894 
	C917.287476,961.312195 946.157898,959.714111 974.555237,952.977051 
	C996.396729,947.795410 1017.455566,940.641846 1035.419922,926.635132 
	C1052.403931,913.392700 1063.023193,896.794556 1062.388794,874.223511 
	C1061.697998,849.647156 1048.028076,833.821533 1028.053223,822.309387 
	C1010.249146,812.048157 990.305969,807.769836 970.592468,802.998596 
	C948.459778,797.641846 926.254822,792.570251 904.199829,786.912476 
	C894.321472,784.378418 885.013733,780.163025 877.791504,772.515930 
	C868.175354,762.333984 869.698303,746.804321 881.386719,739.139771 
	C885.482727,736.453674 890.222229,734.430298 894.946167,733.072754 
	C922.325317,725.204712 950.303284,725.459045 978.203308,728.655334 
	C995.847839,730.676697 1013.263855,734.663574 1030.817139,737.557434 
	C1032.534668,737.840576 1035.371948,737.240479 1036.209595,736.028015 
	C1043.841064,724.981018 1048.754272,712.785217 1050.869751,699.251892 
	C1049.145264,698.802612 1047.727783,698.374695 1046.284912,698.066101 
	C1015.943787,691.577942 985.314758,687.277283 954.265137,686.570435 
	C920.864502,685.810181 887.640991,687.237000 855.383789,697.114319 
	C838.153564,702.390259 822.280212,710.252930 809.710815,723.613892 
	C788.784851,745.857788 789.190857,780.398865 811.587402,798.866882 
	C820.154297,805.931030 830.566895,811.164185 840.817017,815.697021 
	C863.872375,825.892456 888.596191,830.859436 912.909119,837.081055 
	C929.307129,841.277283 945.559998,846.041016 962.564819,850.880920 
M705.775940,515.476929 
	C703.110901,515.579712 700.445251,515.668579 697.780945,515.787292 
	C663.617004,517.309509 630.236572,522.588257 598.866028,537.014465 
	C584.358032,543.686096 571.007935,552.116821 561.297974,565.190857 
	C549.513611,581.058105 548.130432,597.986206 557.639832,615.295105 
	C568.155212,634.434937 583.940979,648.446289 603.429932,657.768311 
	C637.726196,674.172852 674.318787,676.248291 711.393738,672.539124 
	C746.955200,668.981201 780.578857,657.859802 813.465759,644.343445 
	C856.883484,626.498840 897.263977,603.102478 936.526917,577.557007 
	C955.229187,565.388855 974.997070,555.063660 996.028503,547.355469 
	C997.301270,546.888977 998.543152,546.338440 1000.506958,545.539001 
	C986.829346,535.510193 973.958252,525.756958 960.766418,516.458740 
	C919.857544,487.624237 877.116821,462.003571 830.430725,443.484009 
	C795.701111,429.707397 759.997925,420.235382 722.332092,419.901154 
	C670.001404,419.436859 625.045288,436.629700 589.772461,476.160065 
	C582.591064,484.208252 576.689453,493.398315 570.197876,502.061981 
	C570.643738,502.413300 571.089539,502.764587 571.535400,503.115875 
	C572.672791,502.220703 573.833557,501.353607 574.944031,500.426208 
	C596.212402,482.663574 620.250427,470.224915 646.973877,462.952606 
	C687.760803,451.853180 728.745361,453.357574 769.720154,461.489502 
	C818.557312,471.181824 864.360046,489.285675 908.197327,512.586609 
	C917.265625,517.406738 926.088013,522.689453 935.635193,528.105835 
	C934.183777,529.285767 933.389343,529.877258 932.655151,530.535889 
	C898.032776,561.593140 860.557678,588.554016 818.812439,609.282593 
	C792.591309,622.302612 765.354736,632.543701 735.945068,635.133972 
	C706.139832,637.758972 676.364868,636.914307 646.872070,631.307922 
	C632.084351,628.496826 617.677368,624.451050 605.215332,615.517761 
	C590.887024,605.246643 587.490967,590.875427 596.493530,575.809753 
	C599.831482,570.223572 604.366638,564.949219 609.435791,560.876953 
	C624.447205,548.817566 642.585815,543.463745 660.922302,539.073792 
	C697.721863,530.263611 735.238037,527.592224 772.932190,526.866943 
	C785.813904,526.619141 798.704468,526.827576 811.590942,526.827576 
	C777.078064,518.682800 742.150452,514.731873 705.775940,515.476929 
M448.197815,619.684875 
	C458.195343,600.349060 468.515411,581.171631 478.109039,561.637451 
	C490.184235,537.050415 502.049103,512.343262 513.233459,487.342957 
	C518.445557,475.692444 522.232605,463.251221 521.838989,450.202606 
	C521.725708,446.448181 520.719971,441.563568 518.222046,439.250488 
	C510.020081,431.655396 494.746582,425.374512 481.299286,432.335632 
	C471.241119,437.542267 464.373077,445.853027 459.447937,455.629425 
	C455.054199,464.350952 451.665527,473.582306 447.901703,482.617218 
	C416.408600,558.215149 385.000458,633.848511 353.422241,709.410767 
	C335.487518,752.326050 317.265686,795.121399 299.262085,838.008057 
	C298.584229,839.622864 297.974640,842.500488 298.796997,843.319153 
	C306.671570,851.158081 314.861694,858.680054 323.208252,866.525024 
	C364.573761,784.885193 406.249725,702.632690 448.197815,619.684875 
M1413.246948,1111.500000 
	C1413.246948,1128.595459 1413.246948,1145.690918 1413.246948,1162.635010 
	C1417.856201,1162.635010 1421.759888,1162.635010 1426.178833,1162.635010 
	C1426.178833,1148.709106 1426.178833,1135.158081 1426.178833,1121.398682 
	C1429.199341,1121.398682 1431.730835,1121.683472 1434.178711,1121.351440 
	C1447.652954,1119.523682 1456.774048,1125.638062 1463.504517,1136.744385 
	C1468.333008,1144.711914 1473.488159,1152.484619 1478.645874,1160.245850 
	C1479.439331,1161.439941 1480.977539,1162.785400 1482.264038,1162.887085 
	C1486.479736,1163.220459 1490.738281,1163.012207 1496.373657,1163.012207 
	C1484.867432,1148.061523 1478.815552,1130.694092 1462.943604,1120.388794 
	C1465.245239,1119.848389 1467.036377,1119.498047 1468.787476,1119.005127 
	C1482.949219,1115.019287 1489.432007,1105.593384 1487.984741,1091.141357 
	C1486.750000,1078.810791 1477.579224,1070.352783 1463.726318,1069.856934 
	C1447.582886,1069.279053 1431.413696,1069.412720 1415.255493,1069.274414 
	C1414.658813,1069.269287 1414.058594,1069.648682 1413.247192,1069.920166 
	C1413.247192,1083.532104 1413.247192,1097.016113 1413.246948,1111.500000 
M656.735901,1098.979004 
	C657.770630,1083.506104 650.668335,1071.501709 637.291260,1070.534790 
	C619.124023,1069.221558 600.790588,1070.207764 582.411682,1070.207764 
	C582.411682,1100.794189 582.411682,1131.821045 582.411682,1162.779785 
	C586.564148,1162.779785 590.345276,1162.779785 594.697205,1162.779785 
	C594.697205,1148.986206 594.697205,1135.413208 594.697205,1121.396484 
	C597.897949,1121.396484 600.563843,1121.683105 603.149231,1121.348145 
	C616.393677,1119.632568 625.454285,1125.538696 632.093811,1136.513794 
	C636.915161,1144.483643 642.086670,1152.243408 647.193970,1160.036743 
	C647.952393,1161.194092 649.162659,1162.787231 650.256958,1162.864746 
	C654.777954,1163.184570 659.334717,1162.998779 665.010864,1162.998779 
	C653.750977,1148.080688 647.592957,1130.904053 632.110046,1120.672852 
	C649.790710,1115.055176 653.660583,1111.741699 656.735901,1098.979004 
M934.397461,1069.230225 
	C932.317566,1069.230225 930.237671,1069.230225 928.247314,1069.230225 
	C928.247314,1100.914429 928.247314,1131.822876 928.247314,1162.781006 
	C932.149292,1162.781006 935.745178,1162.781006 940.022583,1162.781006 
	C940.022583,1138.791748 940.022583,1115.021240 940.022583,1090.023438 
	C941.859985,1092.676880 942.914124,1094.155640 943.923706,1095.664062 
	C958.176758,1116.961426 972.403931,1138.276123 986.718506,1159.532104 
	C987.650452,1160.916138 989.134949,1162.655884 990.547791,1162.844849 
	C994.100769,1163.320312 997.759888,1163.002197 1001.370605,1163.002197 
	C1001.370605,1131.473511 1001.370605,1100.463745 1001.370605,1069.562012 
	C997.331543,1069.562012 993.736633,1069.562012 989.575928,1069.562012 
	C989.575928,1093.659424 989.575928,1117.430298 989.575928,1142.433472 
	C987.882812,1139.961548 986.938782,1138.612793 986.024536,1137.244141 
	C971.882080,1116.072876 957.678467,1094.942139 943.673218,1073.680542 
	C941.533447,1070.432373 939.302429,1068.447632 934.397461,1069.230225 
M1072.254517,1149.488892 
	C1072.254517,1153.926147 1072.254517,1158.363403 1072.254517,1162.857056 
	C1085.945435,1162.857056 1098.967407,1163.424683 1111.920654,1162.723267 
	C1131.139038,1161.682373 1142.408813,1152.197876 1147.438354,1133.918213 
	C1150.732056,1121.946655 1150.889893,1109.784546 1147.530518,1097.870972 
	C1143.397217,1083.211426 1134.813110,1071.955078 1118.718628,1070.472290 
	C1103.674438,1069.086060 1088.446655,1069.689453 1073.299316,1069.447632 
	C1073.050659,1069.443726 1072.795776,1069.831177 1072.254639,1070.271240 
	C1072.254639,1096.191162 1072.254639,1122.342163 1072.254517,1149.488892 
M307.871033,1072.265625 
	C304.662781,1074.620239 301.060547,1076.589111 298.313202,1079.394897 
	C285.064148,1092.926514 282.175293,1109.640747 285.198364,1127.484009 
	C287.970886,1143.848511 296.854187,1156.202881 312.994232,1161.730225 
	C329.567657,1167.406128 345.366028,1165.135132 358.895020,1153.592041 
	C376.847046,1138.275146 378.898346,1103.304443 363.446228,1083.681396 
	C351.168793,1068.090088 329.242859,1063.410767 307.871033,1072.265625 
M1833.548340,1120.026978 
	C1848.319702,1120.026978 1863.091187,1120.026978 1877.899780,1120.026978 
	C1877.899780,1116.117065 1877.899780,1112.735107 1877.899780,1108.928467 
	C1860.655640,1108.928467 1843.739258,1108.928467 1826.862549,1108.928467 
	C1826.862549,1099.254639 1826.862549,1090.022583 1826.862549,1080.347412 
	C1845.324341,1080.347412 1863.416626,1080.347412 1881.638306,1080.347412 
	C1881.638306,1076.491455 1881.638306,1073.091675 1881.638306,1069.639038 
	C1858.998047,1069.639038 1836.646729,1069.639038 1814.396118,1069.639038 
	C1814.396118,1100.936768 1814.396118,1131.829834 1814.396118,1162.657959 
	C1837.759155,1162.657959 1860.802368,1162.657959 1883.639160,1162.657959 
	C1883.639160,1158.897827 1883.639160,1155.499146 1883.639160,1151.799805 
	C1864.501221,1151.799805 1845.727783,1151.799805 1826.815430,1151.799805 
	C1826.815430,1141.115601 1826.815430,1130.748413 1826.815430,1120.026978 
	C1828.940796,1120.026978 1830.751099,1120.026978 1833.548340,1120.026978 
M503.463409,1143.693237 
	C498.993225,1152.554688 486.539978,1155.058838 473.926331,1152.307739 
	C464.076355,1150.159180 459.131348,1143.888184 458.770142,1132.212280 
	C458.177765,1113.064819 458.305969,1093.894897 458.134247,1074.734497 
	C458.118622,1072.991455 458.132141,1071.248169 458.132141,1069.600098 
	C453.593170,1069.600098 449.858002,1069.600098 446.165436,1069.600098 
	C446.165436,1090.950562 445.520355,1111.962524 446.368805,1132.914185 
	C447.051758,1149.778076 454.319763,1158.818848 467.698883,1162.599609 
	C476.495697,1165.085449 485.462799,1165.251709 494.414185,1163.373657 
	C507.787537,1160.567749 516.990173,1152.359619 517.854248,1138.916626 
	C519.324707,1116.039673 518.831970,1093.036621 519.151245,1070.086426 
	C519.153137,1069.951294 518.972046,1069.813477 518.829163,1069.609619 
	C514.989136,1069.609619 511.107666,1069.609619 506.972443,1069.609619 
	C506.972443,1088.808716 507.203674,1107.639404 506.829498,1126.457886 
	C506.719330,1132.000488 504.895844,1137.509155 503.463409,1143.693237 
M836.942871,1086.507690 
	C834.978882,1081.743408 833.205261,1076.885376 830.933899,1072.272461 
	C830.260010,1070.903809 828.307739,1069.813843 826.719666,1069.342041 
	C825.034912,1068.841675 823.055420,1069.443481 821.259888,1069.183105 
	C817.653809,1068.660278 816.068237,1070.218506 814.817505,1073.567383 
	C808.013977,1091.784668 800.940369,1109.901001 793.963623,1128.053589 
	C789.563904,1139.500977 785.170959,1150.950928 780.628540,1162.781250 
	C785.275940,1162.781250 789.374512,1162.781250 793.814636,1162.781250 
	C796.716858,1154.791504 799.818787,1146.746094 802.518616,1138.567871 
	C803.546753,1135.453369 805.116882,1134.499023 808.268127,1134.634399 
	C813.923950,1134.877441 819.598022,1134.666382 825.263916,1134.713257 
	C831.085327,1134.761230 838.385071,1132.790527 842.320190,1135.562012 
	C846.433777,1138.459351 847.413940,1145.911621 849.581543,1151.444214 
	C854.263123,1163.393555 854.215393,1163.414551 866.911987,1162.932251 
	C867.170654,1162.922363 867.419800,1162.660645 867.982788,1162.340454 
	C857.718323,1137.322021 847.444824,1112.281494 836.942871,1086.507690 
M1552.014893,1163.010132 
	C1553.209351,1161.952393 1554.983521,1161.121826 1555.501709,1159.799194 
	C1558.289795,1152.683960 1560.858643,1145.477905 1563.299072,1138.234375 
	C1564.166260,1135.660767 1565.372070,1134.579224 1568.259277,1134.629517 
	C1578.920288,1134.814941 1589.588501,1134.810059 1600.249756,1134.632324 
	C1603.113525,1134.584717 1604.297607,1135.641479 1605.220337,1138.215332 
	C1607.855591,1145.565918 1610.700073,1152.846313 1613.683716,1160.062622 
	C1614.186279,1161.278320 1615.720947,1162.759521 1616.900391,1162.874878 
	C1620.611328,1163.237915 1624.380127,1163.008423 1628.614868,1163.008423 
	C1627.846802,1160.802124 1627.381836,1159.234741 1626.765259,1157.729614 
	C1615.299072,1129.737915 1603.579712,1101.846191 1592.511597,1073.698120 
	C1589.984375,1067.270508 1585.499634,1069.972168 1581.565430,1069.197754 
	C1577.618530,1068.420776 1576.526001,1070.825928 1575.366211,1073.868774 
	C1564.652100,1101.977417 1553.824219,1130.042725 1543.054077,1158.130249 
	C1542.492676,1159.594604 1542.155029,1161.144897 1541.609131,1163.010864 
	C1545.136475,1163.010864 1548.127686,1163.010864 1552.014893,1163.010132 
M1673.067993,1079.507812 
	C1683.352417,1105.990234 1693.742188,1132.432983 1703.799316,1159.001465 
	C1705.184937,1162.662109 1707.156616,1163.390259 1710.392334,1163.008667 
	C1713.976807,1162.586060 1717.858765,1164.587524 1720.012817,1158.871094 
	C1730.674561,1130.578979 1741.880127,1102.491943 1752.873535,1074.324585 
	C1753.462280,1072.816040 1753.863403,1071.234375 1754.496216,1069.229004 
	C1751.239380,1069.229004 1748.418457,1069.396240 1745.627197,1069.180054 
	C1743.043823,1068.980103 1741.835205,1069.950195 1740.946777,1072.389404 
	C1731.793213,1097.520996 1722.521729,1122.609741 1713.276367,1147.707886 
	C1712.860718,1148.836060 1712.381592,1149.940918 1711.836914,1151.292358 
	C1702.435669,1124.944458 1693.256348,1099.118164 1683.936035,1073.342896 
	C1683.366577,1071.767700 1681.833374,1069.639893 1680.483765,1069.423950 
	C1677.000488,1068.866699 1673.368652,1069.237305 1669.182495,1069.237305 
	C1670.604492,1072.925659 1671.729736,1075.844604 1673.067993,1079.507812 
M1329.585449,1109.500000 
	C1329.585449,1099.912109 1329.585449,1090.324097 1329.585449,1080.292480 
	C1340.263550,1080.292480 1350.183960,1080.292480 1360.265625,1080.292480 
	C1360.265625,1076.430664 1360.265625,1073.035645 1360.265625,1069.603271 
	C1335.428345,1069.603271 1310.912842,1069.603271 1286.328613,1069.603271 
	C1286.328613,1073.287354 1286.328613,1076.576294 1286.328613,1080.418579 
	C1296.564575,1080.418579 1306.623413,1080.418579 1317.139893,1080.418579 
	C1317.139893,1108.183350 1317.139893,1135.397095 1317.139893,1162.687866 
	C1321.493164,1162.687866 1325.367188,1162.687866 1329.585205,1162.687866 
	C1329.585205,1145.070557 1329.585205,1127.785278 1329.585449,1109.500000 
M212.169479,1129.500000 
	C212.169479,1113.252686 212.169479,1097.005249 212.169479,1080.349609 
	C222.863449,1080.349609 232.816010,1080.349609 242.876144,1080.349609 
	C242.876144,1076.512695 242.876144,1073.097900 242.876144,1069.511963 
	C218.184082,1069.511963 193.785965,1069.511963 169.252380,1069.511963 
	C169.252380,1073.196655 169.252380,1076.602783 169.252380,1080.566772 
	C179.555344,1080.566772 189.606491,1080.566772 200.131134,1080.566772 
	C200.131134,1108.348999 200.131134,1135.573975 200.131134,1162.708740 
	C204.382950,1162.708740 208.136688,1162.708740 212.169525,1162.708740 
	C212.169525,1151.775879 212.169525,1141.137939 212.169479,1129.500000 
M1946.517822,1143.499268 
	C1946.517822,1149.925049 1946.517822,1156.350830 1946.517822,1162.664185 
	C1966.410156,1162.664185 1985.630005,1162.664185 2004.667603,1162.664185 
	C2004.667603,1158.922852 2004.667603,1155.525146 2004.667603,1151.698120 
	C1989.253784,1151.698120 1974.197754,1151.698120 1958.746338,1151.698120 
	C1958.746338,1124.037964 1958.746338,1096.820068 1958.746338,1069.489624 
	C1954.586792,1069.489624 1950.837646,1069.489624 1946.518066,1069.489624 
	C1946.518066,1093.988037 1946.518066,1118.243774 1946.517822,1143.499268 
z"/>
<path fill="#268634" opacity="1.000000" stroke="none" 
	d="
M2170.000000,947.531372 
	C2138.928223,951.674316 2107.935791,956.457031 2076.760742,958.687134 
	C2049.743896,960.619873 2022.490601,960.586609 1995.395508,959.729004 
	C1965.384033,958.778992 1935.671265,954.696533 1907.922729,941.927917 
	C1895.992798,936.438354 1885.507690,928.978577 1876.834717,918.966248 
	C1858.687012,898.015747 1854.219849,855.909790 1884.421997,829.356445 
	C1901.098755,814.694397 1920.692383,806.040527 1941.668579,800.089844 
	C1979.947021,789.230469 2019.151978,788.049866 2058.565430,789.544922 
	C2070.840820,790.010498 2083.107178,790.711121 2095.364014,791.303406 
	C2098.342773,759.603943 2086.176270,743.732910 2062.980957,735.960266 
	C2043.587646,729.461731 2023.529541,728.217529 2003.336548,728.238953 
	C1973.436890,728.270691 1943.859863,731.679810 1914.583130,737.642639 
	C1910.826904,738.407654 1908.436646,737.728760 1906.203613,734.493164 
	C1898.695679,723.614624 1894.793213,711.729431 1894.994141,697.712097 
	C1908.857666,695.512207 1922.557617,692.907837 1936.370239,691.231628 
	C1970.317383,687.112000 2004.395752,685.068054 2038.592041,687.108276 
	C2067.626709,688.840454 2096.203369,692.882385 2122.853516,705.623779 
	C2149.477051,718.352356 2165.409180,738.977600 2169.735840,768.716187 
	C2170.000000,828.354248 2170.000000,887.708435 2170.000000,947.531372 
M2074.138672,917.711243 
	C2081.330566,916.776550 2088.522705,915.841797 2095.644043,914.916260 
	C2095.644043,886.821411 2095.644043,859.390198 2095.644043,831.859741 
	C2094.817139,831.634216 2094.199219,831.352539 2093.564941,831.308838 
	C2063.814209,829.258911 2034.053345,826.820801 2004.248047,830.095825 
	C1988.480469,831.828491 1973.142456,835.155273 1958.898071,842.746948 
	C1933.159058,856.464783 1932.331055,892.696472 1954.746582,906.443970 
	C1968.105103,914.636597 1982.576538,918.686096 1997.854736,918.832703 
	C2022.973145,919.073792 2048.102295,918.203491 2074.138672,917.711243 
z"/>
<path fill="#AB292A" opacity="1.000000" stroke="none" 
	d="
M573.531372,1.000001 
	C581.947449,2.336233 589.931641,3.485096 597.836365,5.038836 
	C652.750793,15.832742 705.494751,32.465027 752.559204,63.833145 
	C771.013367,76.132706 787.409424,90.744316 798.596436,110.274597 
	C807.356934,125.568771 811.559692,141.734787 804.906616,159.018417 
	C798.917419,174.577148 786.738647,184.100998 772.200623,191.031219 
	C753.985596,199.714233 734.457520,203.006531 714.573853,203.740875 
	C675.466797,205.185181 637.107544,200.677124 600.162964,187.050415 
	C581.436584,180.143311 563.974548,170.970245 549.324097,157.118240 
	C541.102356,149.344589 534.216858,140.650253 531.874878,129.206421 
	C529.512207,117.661621 533.620972,107.807045 544.568970,101.894890 
	C571.269043,87.476318 612.478882,89.016838 637.547546,119.505203 
	C637.739685,119.738846 637.775940,120.100624 638.110779,121.028000 
	C632.740173,119.761215 627.751343,118.429604 622.697876,117.422798 
	C609.733521,114.839890 596.684814,113.200241 583.550415,116.030792 
	C577.951050,117.237495 572.011292,118.945351 570.444580,125.323547 
	C568.850708,131.812271 573.643372,135.923904 578.077148,139.417160 
	C590.477783,149.187332 605.154175,154.251022 620.094116,158.394806 
	C645.341980,165.397614 670.888550,170.857025 697.324585,169.930145 
	C712.751648,169.389267 727.861450,166.962875 741.705627,159.676651 
	C752.401978,154.047119 761.006836,146.439209 762.441650,133.414932 
	C763.403748,124.681595 760.233093,117.034401 755.539551,109.963524 
	C746.691223,96.633324 734.508972,86.733551 721.126343,78.482834 
	C679.216309,52.644295 634.148865,34.644581 585.512024,26.406805 
	C563.190979,22.626221 540.694641,22.161053 518.804871,29.558771 
	C492.611816,38.410805 480.918915,56.931919 483.814270,84.382050 
	C483.883301,85.036385 483.823029,85.704361 483.828125,86.365967 
	C467.830994,68.924629 460.280029,34.192287 490.564850,14.735466 
	C502.757416,6.902184 516.392456,3.519083 530.764771,1.323291 
	C545.020874,1.000000 559.041809,1.000000 573.531372,1.000001 
z"/>
<path fill="#93C39A" opacity="1.000000" stroke="none" 
	d="
M2.210202,954.688477 
	C2.009390,954.743835 1.808580,954.799255 1.303884,954.927307 
	C1.000000,825.310730 1.000000,695.621399 1.000000,565.466064 
	C1.189415,565.021667 1.378830,565.043274 1.813350,565.572388 
	C2.038918,566.745361 2.002279,567.410950 2.002263,568.076538 
	C1.999201,695.452026 1.998010,822.827454 2.006979,950.202942 
	C2.007084,951.698120 2.139531,953.193298 2.210202,954.688477 
z"/>
<path fill="#268634" opacity="1.000000" stroke="none" 
	d="
M2.642257,954.767822 
	C2.139531,953.193298 2.007084,951.698120 2.006979,950.202942 
	C1.998010,822.827454 1.999201,695.452026 2.002263,568.076538 
	C2.002279,567.410950 2.038918,566.745361 2.094729,565.623352 
	C25.776848,561.291504 49.350765,556.888184 73.084068,553.654724 
	C117.446533,547.610657 161.960846,544.628601 206.482956,552.084106 
	C235.058365,556.869263 262.772583,564.644470 286.979309,581.311646 
	C323.179108,606.236389 337.230103,641.426697 333.665497,684.560852 
	C331.437500,711.521301 316.887695,731.412354 297.444397,748.411560 
	C275.380920,767.701599 248.954605,779.055481 221.761108,788.866882 
	C220.234070,789.417847 218.703674,789.959534 216.377853,790.790100 
	C270.025482,845.438660 323.259735,899.666077 377.661560,955.082886 
	C360.222137,955.455994 344.323608,956.045959 328.424774,956.054565 
	C316.438354,956.061035 304.445404,955.439270 292.470795,954.805664 
	C290.402740,954.696228 288.235474,953.390564 286.432037,952.168396 
	C284.408966,950.797241 282.747040,948.893127 280.501404,946.804810 
	C273.733246,939.921326 267.391632,933.453979 261.050018,926.986633 
	C250.513718,916.104736 240.041977,905.159546 229.429550,894.352356 
	C191.361984,855.586548 153.242203,816.871948 115.168236,778.112305 
	C113.757957,776.676636 112.619339,774.974060 110.949471,772.891052 
	C123.531059,770.104736 135.199738,767.724426 146.764984,764.917908 
	C172.938416,758.566406 198.275894,750.029846 220.237106,733.821899 
	C237.903397,720.783752 251.095856,704.430908 255.205414,682.178772 
	C259.582886,658.476074 251.700058,638.944214 234.270050,622.880371 
	C217.661072,607.573181 197.451874,600.624084 175.498077,598.076416 
	C143.564133,594.370667 112.405373,598.895325 81.684319,607.507874 
	C81.213913,607.639771 80.794250,607.952637 80.061829,608.330017 
	C80.061829,723.494690 80.061829,838.788940 80.061829,954.563416 
	C54.220276,956.394714 28.660265,956.922302 2.642257,954.767822 
z"/>
<path fill="#AA2728" opacity="1.000000" stroke="none" 
	d="
M540.706482,203.335892 
	C569.170166,219.461838 599.722168,228.261246 631.321350,233.991547 
	C659.340088,239.072540 687.548645,240.949249 715.879944,237.872849 
	C749.605408,234.210709 781.491150,225.128021 808.651306,203.534256 
	C812.033569,200.845154 815.110107,197.732101 818.667236,195.314072 
	C821.834534,193.161011 824.015625,194.500870 823.373230,198.269836 
	C822.569153,202.987137 821.413269,207.758408 819.593201,212.169678 
	C809.509216,236.609940 795.612061,258.918304 780.385437,280.400116 
	C752.362061,319.935638 720.095886,355.448212 680.446533,383.735321 
	C654.721558,402.088318 626.894653,416.004608 595.566162,421.900482 
	C560.682861,428.465393 527.763611,421.833557 496.189392,406.591125 
	C445.051697,381.904327 415.200958,341.215363 405.003052,285.651093 
	C398.692810,251.269272 400.461731,216.967438 406.211945,182.775482 
	C412.440887,145.737015 423.068268,109.934235 437.747559,75.349457 
	C438.183838,74.321510 438.747223,73.347488 439.341827,72.169075 
	C455.448120,129.704803 488.855316,173.421265 540.706482,203.335892 
z"/>
<path fill="#268734" opacity="1.000000" stroke="none" 
	d="
M618.451172,956.451904 
	C579.017822,962.675720 540.040649,962.793274 501.264008,954.959534 
	C473.565826,949.363953 447.585205,939.349915 425.210907,921.595764 
	C393.139679,896.147034 379.078766,862.161499 379.760986,821.858582 
	C380.710754,765.751648 409.218201,728.208801 459.451508,705.804688 
	C496.496674,689.282471 535.668823,685.399231 575.652832,686.582031 
	C604.116821,687.423950 631.954224,691.678894 658.661743,702.021423 
	C679.536621,710.105225 698.663147,720.998962 714.302246,737.264099 
	C739.080933,763.034912 748.897278,794.463318 747.351501,829.512634 
	C744.781433,887.787048 712.785767,924.482300 660.075806,944.776428 
	C646.822021,949.879272 632.630127,952.545532 618.451172,956.451904 
M543.261780,919.248840 
	C561.925232,921.204529 580.518311,920.849731 598.915100,916.955078 
	C629.389526,910.503723 651.212463,893.490234 661.284546,863.499756 
	C669.722900,838.373901 669.804993,812.760132 662.255249,787.355408 
	C654.395691,760.908020 637.262939,742.750549 610.876343,734.605225 
	C579.567810,724.940613 547.820435,725.017700 516.461792,734.551086 
	C493.649658,741.486328 477.750305,756.620422 468.604218,778.711060 
	C460.287689,798.798157 459.243073,819.752014 461.496765,841.020203 
	C463.075989,855.923462 467.464661,869.939575 475.687897,882.635132 
	C491.351990,906.818176 515.105042,916.169922 543.261780,919.248840 
z"/>
<path fill="#268634" opacity="1.000000" stroke="none" 
	d="
M1245.423584,789.448425 
	C1273.666626,789.736145 1301.443481,790.075806 1329.279907,790.416199 
	C1332.147583,761.373413 1321.203125,744.695496 1298.751953,736.651672 
	C1278.810791,729.507080 1258.099243,728.245117 1237.241943,728.245728 
	C1207.342529,728.246582 1177.766724,731.677734 1148.490112,737.636719 
	C1144.744141,738.399170 1142.330322,737.753967 1140.097168,734.508972 
	C1132.608643,723.627258 1128.631714,711.769653 1128.931152,697.847778 
	C1140.160645,695.951904 1151.221924,693.749023 1162.378784,692.262207 
	C1199.101318,687.368530 1235.975830,684.981079 1273.020142,687.127319 
	C1299.874390,688.683167 1326.338989,692.479675 1351.356567,703.112183 
	C1378.536255,714.663513 1397.076660,733.671753 1402.455322,763.575317 
	C1403.656616,770.254150 1404.184082,777.139771 1404.201904,783.932373 
	C1404.342651,837.584473 1404.284668,891.237122 1404.287964,944.889587 
	C1404.287964,945.707581 1404.287964,946.525635 1404.287964,947.974976 
	C1395.661377,949.236328 1387.186523,950.572815 1378.684082,951.702271 
	C1334.231934,957.606934 1289.671631,962.152222 1244.739014,960.652710 
	C1213.903320,959.623596 1183.200684,957.211975 1153.781616,946.869629 
	C1137.073120,940.995605 1121.866089,932.533997 1110.449097,918.536560 
	C1090.096436,893.583557 1091.850220,856.647705 1114.424194,833.277649 
	C1131.296509,815.810242 1152.769409,806.685425 1175.530151,800.082275 
	C1198.190552,793.508240 1221.465088,790.733643 1245.423584,789.448425 
M1176.571411,893.766235 
	C1178.628784,896.357056 1180.416382,899.231384 1182.789551,901.490356 
	C1193.769775,911.942566 1207.528809,916.192444 1222.097046,917.986206 
	C1246.811157,921.029358 1271.619995,920.296448 1296.385132,918.670410 
	C1307.444458,917.944336 1318.446045,916.341064 1329.428955,915.140808 
	C1329.428955,886.888550 1329.428955,859.358154 1329.428955,831.876648 
	C1328.627197,831.620850 1328.167969,831.370728 1327.693604,831.337646 
	C1297.804565,829.255371 1267.904541,826.812500 1237.960083,830.107300 
	C1222.880005,831.766602 1208.048096,834.666870 1194.453491,841.927551 
	C1174.451782,852.610535 1167.447021,872.257507 1176.571411,893.766235 
z"/>
<path fill="#268634" opacity="1.000000" stroke="none" 
	d="
M1734.790283,911.000000 
	C1734.789917,875.334778 1735.156494,840.163635 1734.581177,805.007812 
	C1734.392456,793.479248 1732.939697,781.677795 1729.988647,770.551819 
	C1724.548340,750.041199 1709.698975,738.384949 1689.364746,734.530701 
	C1658.971436,728.769897 1629.165894,731.382202 1601.306030,745.533325 
	C1572.233276,760.300476 1557.580566,784.979736 1557.115479,817.278381 
	C1556.484375,861.100952 1556.918457,904.938904 1556.895874,948.770264 
	C1556.895020,950.582031 1556.895996,952.393799 1556.895996,954.653198 
	C1531.561768,957.452026 1506.544067,957.267822 1481.095459,954.791687 
	C1481.095459,867.469299 1481.095459,780.250549 1481.095459,692.055359 
	C1492.575073,691.511169 1504.148804,690.600281 1515.727295,690.532715 
	C1524.366333,690.482300 1533.007446,691.614014 1541.656860,692.023071 
	C1544.515137,692.158203 1545.706177,693.278931 1546.205688,696.086914 
	C1548.413574,708.498657 1550.820068,720.875061 1553.178589,733.392029 
	C1552.916748,733.513062 1553.563721,733.397766 1553.937500,733.015320 
	C1576.608276,709.809448 1604.606812,696.596619 1635.986572,690.503235 
	C1671.480225,683.610962 1706.994629,684.642883 1741.914307,694.173584 
	C1771.260864,702.183105 1794.134155,718.767212 1804.259766,748.615356 
	C1808.050903,759.791199 1810.468872,771.987793 1810.607910,783.753296 
	C1811.270996,839.909851 1810.936279,896.078308 1810.948242,952.242493 
	C1810.948486,952.893250 1810.839355,953.544006 1810.784912,954.152344 
	C1800.217041,957.159668 1760.474243,957.449341 1734.790283,954.641846 
	C1734.790283,940.329773 1734.790283,925.914856 1734.790283,911.000000 
z"/>
<path fill="#268734" opacity="1.000000" stroke="none" 
	d="
M962.221313,850.715942 
	C945.559998,846.041016 929.307129,841.277283 912.909119,837.081055 
	C888.596191,830.859436 863.872375,825.892456 840.817017,815.697021 
	C830.566895,811.164185 820.154297,805.931030 811.587402,798.866882 
	C789.190857,780.398865 788.784851,745.857788 809.710815,723.613892 
	C822.280212,710.252930 838.153564,702.390259 855.383789,697.114319 
	C887.640991,687.237000 920.864502,685.810181 954.265137,686.570435 
	C985.314758,687.277283 1015.943787,691.577942 1046.284912,698.066101 
	C1047.727783,698.374695 1049.145264,698.802612 1050.869751,699.251892 
	C1048.754272,712.785217 1043.841064,724.981018 1036.209595,736.028015 
	C1035.371948,737.240479 1032.534668,737.840576 1030.817139,737.557434 
	C1013.263855,734.663574 995.847839,730.676697 978.203308,728.655334 
	C950.303284,725.459045 922.325317,725.204712 894.946167,733.072754 
	C890.222229,734.430298 885.482727,736.453674 881.386719,739.139771 
	C869.698303,746.804321 868.175354,762.333984 877.791504,772.515930 
	C885.013733,780.163025 894.321472,784.378418 904.199829,786.912476 
	C926.254822,792.570251 948.459778,797.641846 970.592468,802.998596 
	C990.305969,807.769836 1010.249146,812.048157 1028.053223,822.309387 
	C1048.028076,833.821533 1061.697998,849.647156 1062.388794,874.223511 
	C1063.023193,896.794556 1052.403931,913.392700 1035.419922,926.635132 
	C1017.455566,940.641846 996.396729,947.795410 974.555237,952.977051 
	C946.157898,959.714111 917.287476,961.312195 888.229431,960.803894 
	C853.842407,960.202393 819.789368,956.730347 786.240417,948.933044 
	C785.934814,948.862061 785.655457,948.678284 785.366577,948.541016 
	C784.766174,940.565796 791.852905,923.378174 802.237366,907.649780 
	C813.757263,909.919312 825.235718,912.581421 836.846924,914.392334 
	C870.058350,919.571899 903.377380,921.957520 936.762573,915.934204 
	C949.783569,913.584961 962.263000,909.572205 973.130127,901.645569 
	C991.263428,888.418762 990.881165,868.550049 972.197266,856.093445 
	C969.172485,854.076782 965.784790,852.604675 962.221313,850.715942 
z"/>
<path fill="#AB292A" opacity="1.000000" stroke="none" 
	d="
M706.251831,515.463867 
	C742.150452,514.731873 777.078064,518.682800 811.590942,526.827576 
	C798.704468,526.827576 785.813904,526.619141 772.932190,526.866943 
	C735.238037,527.592224 697.721863,530.263611 660.922302,539.073792 
	C642.585815,543.463745 624.447205,548.817566 609.435791,560.876953 
	C604.366638,564.949219 599.831482,570.223572 596.493530,575.809753 
	C587.490967,590.875427 590.887024,605.246643 605.215332,615.517761 
	C617.677368,624.451050 632.084351,628.496826 646.872070,631.307922 
	C676.364868,636.914307 706.139832,637.758972 735.945068,635.133972 
	C765.354736,632.543701 792.591309,622.302612 818.812439,609.282593 
	C860.557678,588.554016 898.032776,561.593140 932.655151,530.535889 
	C933.389343,529.877258 934.183777,529.285767 935.635193,528.105835 
	C926.088013,522.689453 917.265625,517.406738 908.197327,512.586609 
	C864.360046,489.285675 818.557312,471.181824 769.720154,461.489502 
	C728.745361,453.357574 687.760803,451.853180 646.973877,462.952606 
	C620.250427,470.224915 596.212402,482.663574 574.944031,500.426208 
	C573.833557,501.353607 572.672791,502.220703 571.535400,503.115875 
	C571.089539,502.764587 570.643738,502.413300 570.197876,502.061981 
	C576.689453,493.398315 582.591064,484.208252 589.772461,476.160065 
	C625.045288,436.629700 670.001404,419.436859 722.332092,419.901154 
	C759.997925,420.235382 795.701111,429.707397 830.430725,443.484009 
	C877.116821,462.003571 919.857544,487.624237 960.766418,516.458740 
	C973.958252,525.756958 986.829346,535.510193 1000.506958,545.539001 
	C998.543152,546.338440 997.301270,546.888977 996.028503,547.355469 
	C974.997070,555.063660 955.229187,565.388855 936.526917,577.557007 
	C897.263977,603.102478 856.883484,626.498840 813.465759,644.343445 
	C780.578857,657.859802 746.955200,668.981201 711.393738,672.539124 
	C674.318787,676.248291 637.726196,674.172852 603.429932,657.768311 
	C583.940979,648.446289 568.155212,634.434937 557.639832,615.295105 
	C548.130432,597.986206 549.513611,581.058105 561.297974,565.190857 
	C571.007935,552.116821 584.358032,543.686096 598.866028,537.014465 
	C630.236572,522.588257 663.617004,517.309509 697.780945,515.787292 
	C700.445251,515.668579 703.110901,515.579712 706.251831,515.463867 
z"/>
<path fill="#201B18" opacity="1.000000" stroke="none" 
	d="
M448.061768,620.032471 
	C406.249725,702.632690 364.573761,784.885193 323.208252,866.525024 
	C314.861694,858.680054 306.671570,851.158081 298.796997,843.319153 
	C297.974640,842.500488 298.584229,839.622864 299.262085,838.008057 
	C317.265686,795.121399 335.487518,752.326050 353.422241,709.410767 
	C385.000458,633.848511 416.408600,558.215149 447.901703,482.617218 
	C451.665527,473.582306 455.054199,464.350952 459.447937,455.629425 
	C464.373077,445.853027 471.241119,437.542267 481.299286,432.335632 
	C494.746582,425.374512 510.020081,431.655396 518.222046,439.250488 
	C520.719971,441.563568 521.725708,446.448181 521.838989,450.202606 
	C522.232605,463.251221 518.445557,475.692444 513.233459,487.342957 
	C502.049103,512.343262 490.184235,537.050415 478.109039,561.637451 
	C468.515411,581.171631 458.195343,600.349060 448.061768,620.032471 
z"/>
<path fill="#2C8A39" opacity="1.000000" stroke="none" 
	d="
M1413.247070,1111.000000 
	C1413.247192,1097.016113 1413.247192,1083.532104 1413.247192,1069.920166 
	C1414.058594,1069.648682 1414.658813,1069.269287 1415.255493,1069.274414 
	C1431.413696,1069.412720 1447.582886,1069.279053 1463.726318,1069.856934 
	C1477.579224,1070.352783 1486.750000,1078.810791 1487.984741,1091.141357 
	C1489.432007,1105.593384 1482.949219,1115.019287 1468.787476,1119.005127 
	C1467.036377,1119.498047 1465.245239,1119.848389 1462.943604,1120.388794 
	C1478.815552,1130.694092 1484.867432,1148.061523 1496.373657,1163.012207 
	C1490.738281,1163.012207 1486.479736,1163.220459 1482.264038,1162.887085 
	C1480.977539,1162.785400 1479.439331,1161.439941 1478.645874,1160.245850 
	C1473.488159,1152.484619 1468.333008,1144.711914 1463.504517,1136.744385 
	C1456.774048,1125.638062 1447.652954,1119.523682 1434.178711,1121.351440 
	C1431.730835,1121.683472 1429.199341,1121.398682 1426.178833,1121.398682 
	C1426.178833,1135.158081 1426.178833,1148.709106 1426.178833,1162.635010 
	C1421.759888,1162.635010 1417.856201,1162.635010 1413.246948,1162.635010 
	C1413.246948,1145.690918 1413.246948,1128.595459 1413.247070,1111.000000 
M1475.022095,1091.081665 
	C1473.474976,1083.898193 1468.103149,1080.661743 1461.671509,1080.336304 
	C1449.929443,1079.742065 1438.135864,1080.167358 1426.222412,1080.167358 
	C1426.222412,1090.316528 1426.222412,1100.345825 1426.222412,1109.995972 
	C1437.859863,1109.995972 1449.178223,1110.560425 1460.412842,1109.832642 
	C1471.020996,1109.145386 1475.827637,1102.596069 1475.022095,1091.081665 
z"/>
<path fill="#2B8939" opacity="1.000000" stroke="none" 
	d="
M656.666016,1099.405273 
	C653.660583,1111.741699 649.790710,1115.055176 632.110046,1120.672852 
	C647.592957,1130.904053 653.750977,1148.080688 665.010864,1162.998779 
	C659.334717,1162.998779 654.777954,1163.184570 650.256958,1162.864746 
	C649.162659,1162.787231 647.952393,1161.194092 647.193970,1160.036743 
	C642.086670,1152.243408 636.915161,1144.483643 632.093811,1136.513794 
	C625.454285,1125.538696 616.393677,1119.632568 603.149231,1121.348145 
	C600.563843,1121.683105 597.897949,1121.396484 594.697205,1121.396484 
	C594.697205,1135.413208 594.697205,1148.986206 594.697205,1162.779785 
	C590.345276,1162.779785 586.564148,1162.779785 582.411682,1162.779785 
	C582.411682,1131.821045 582.411682,1100.794189 582.411682,1070.207764 
	C600.790588,1070.207764 619.124023,1069.221558 637.291260,1070.534790 
	C650.668335,1071.501709 657.770630,1083.506104 656.666016,1099.405273 
M604.518188,1079.816528 
	C601.273560,1079.816528 598.028992,1079.816528 594.959167,1079.816528 
	C594.959167,1090.515869 594.959167,1100.417236 594.959167,1109.900024 
	C606.921753,1109.900024 618.549988,1110.434204 630.101318,1109.722046 
	C638.528564,1109.202515 643.671692,1103.310425 644.064209,1096.024414 
	C644.580933,1086.434204 639.077026,1080.576172 628.459106,1080.045532 
	C620.825256,1079.664062 613.162048,1079.871704 604.518188,1079.816528 
z"/>
<path fill="#2A8937" opacity="1.000000" stroke="none" 
	d="
M934.848328,1069.230225 
	C939.302429,1068.447632 941.533447,1070.432373 943.673218,1073.680542 
	C957.678467,1094.942139 971.882080,1116.072876 986.024536,1137.244141 
	C986.938782,1138.612793 987.882812,1139.961548 989.575928,1142.433472 
	C989.575928,1117.430298 989.575928,1093.659424 989.575928,1069.562012 
	C993.736633,1069.562012 997.331543,1069.562012 1001.370605,1069.562012 
	C1001.370605,1100.463745 1001.370605,1131.473511 1001.370605,1163.002197 
	C997.759888,1163.002197 994.100769,1163.320312 990.547791,1162.844849 
	C989.134949,1162.655884 987.650452,1160.916138 986.718506,1159.532104 
	C972.403931,1138.276123 958.176758,1116.961426 943.923706,1095.664062 
	C942.914124,1094.155640 941.859985,1092.676880 940.022583,1090.023438 
	C940.022583,1115.021240 940.022583,1138.791748 940.022583,1162.781006 
	C935.745178,1162.781006 932.149292,1162.781006 928.247314,1162.781006 
	C928.247314,1131.822876 928.247314,1100.914429 928.247314,1069.230225 
	C930.237671,1069.230225 932.317566,1069.230225 934.848328,1069.230225 
z"/>
<path fill="#2B8939" opacity="1.000000" stroke="none" 
	d="
M1072.254639,1148.990967 
	C1072.254639,1122.342163 1072.254639,1096.191162 1072.254639,1070.271240 
	C1072.795776,1069.831177 1073.050659,1069.443726 1073.299316,1069.447632 
	C1088.446655,1069.689453 1103.674438,1069.086060 1118.718628,1070.472290 
	C1134.813110,1071.955078 1143.397217,1083.211426 1147.530518,1097.870972 
	C1150.889893,1109.784546 1150.732056,1121.946655 1147.438354,1133.918213 
	C1142.408813,1152.197876 1131.139038,1161.682373 1111.920654,1162.723267 
	C1098.967407,1163.424683 1085.945435,1162.857056 1072.254517,1162.857056 
	C1072.254517,1158.363403 1072.254517,1153.926147 1072.254639,1148.990967 
M1132.122192,1092.545776 
	C1128.984741,1087.107544 1124.586182,1082.690918 1118.334717,1081.986328 
	C1107.383179,1080.751953 1096.324219,1080.472168 1085.189697,1079.785034 
	C1085.189697,1104.565552 1085.189697,1128.102905 1085.189697,1151.763428 
	C1093.797363,1151.763428 1102.106567,1152.084717 1110.380615,1151.682861 
	C1120.907837,1151.171631 1129.645020,1147.078125 1133.392822,1136.446655 
	C1138.484253,1122.004150 1138.783813,1107.478882 1132.122192,1092.545776 
z"/>
<path fill="#298837" opacity="1.000000" stroke="none" 
	d="
M308.217834,1072.117310 
	C329.242859,1063.410767 351.168793,1068.090088 363.446228,1083.681396 
	C378.898346,1103.304443 376.847046,1138.275146 358.895020,1153.592041 
	C345.366028,1165.135132 329.567657,1167.406128 312.994232,1161.730225 
	C296.854187,1156.202881 287.970886,1143.848511 285.198364,1127.484009 
	C282.175293,1109.640747 285.064148,1092.926514 298.313202,1079.394897 
	C301.060547,1076.589111 304.662781,1074.620239 308.217834,1072.117310 
M309.219727,1084.644043 
	C295.865662,1095.012207 294.500488,1120.615723 299.686859,1133.728516 
	C305.103485,1147.423340 315.923187,1154.527588 330.750305,1153.941650 
	C344.422607,1153.401123 355.523102,1145.096313 358.636993,1131.049072 
	C360.428528,1122.967041 360.870575,1114.126099 359.716919,1105.937134 
	C356.237366,1081.237671 330.516174,1070.344116 309.219727,1084.644043 
z"/>
<path fill="#288836" opacity="1.000000" stroke="none" 
	d="
M1833.054932,1120.026978 
	C1830.751099,1120.026978 1828.940796,1120.026978 1826.815430,1120.026978 
	C1826.815430,1130.748413 1826.815430,1141.115601 1826.815430,1151.799805 
	C1845.727783,1151.799805 1864.501221,1151.799805 1883.639160,1151.799805 
	C1883.639160,1155.499146 1883.639160,1158.897827 1883.639160,1162.657959 
	C1860.802368,1162.657959 1837.759155,1162.657959 1814.396118,1162.657959 
	C1814.396118,1131.829834 1814.396118,1100.936768 1814.396118,1069.639038 
	C1836.646729,1069.639038 1858.998047,1069.639038 1881.638306,1069.639038 
	C1881.638306,1073.091675 1881.638306,1076.491455 1881.638306,1080.347412 
	C1863.416626,1080.347412 1845.324341,1080.347412 1826.862549,1080.347412 
	C1826.862549,1090.022583 1826.862549,1099.254639 1826.862549,1108.928467 
	C1843.739258,1108.928467 1860.655640,1108.928467 1877.899780,1108.928467 
	C1877.899780,1112.735107 1877.899780,1116.117065 1877.899780,1120.026978 
	C1863.091187,1120.026978 1848.319702,1120.026978 1833.054932,1120.026978 
z"/>
<path fill="#288836" opacity="1.000000" stroke="none" 
	d="
M503.660461,1143.363281 
	C504.895844,1137.509155 506.719330,1132.000488 506.829498,1126.457886 
	C507.203674,1107.639404 506.972443,1088.808716 506.972443,1069.609619 
	C511.107666,1069.609619 514.989136,1069.609619 518.829163,1069.609619 
	C518.972046,1069.813477 519.153137,1069.951294 519.151245,1070.086426 
	C518.831970,1093.036621 519.324707,1116.039673 517.854248,1138.916626 
	C516.990173,1152.359619 507.787537,1160.567749 494.414185,1163.373657 
	C485.462799,1165.251709 476.495697,1165.085449 467.698883,1162.599609 
	C454.319763,1158.818848 447.051758,1149.778076 446.368805,1132.914185 
	C445.520355,1111.962524 446.165436,1090.950562 446.165436,1069.600098 
	C449.858002,1069.600098 453.593170,1069.600098 458.132141,1069.600098 
	C458.132141,1071.248169 458.118622,1072.991455 458.134247,1074.734497 
	C458.305969,1093.894897 458.177765,1113.064819 458.770142,1132.212280 
	C459.131348,1143.888184 464.076355,1150.159180 473.926331,1152.307739 
	C486.539978,1155.058838 498.993225,1152.554688 503.660461,1143.363281 
z"/>
<path fill="#2A8938" opacity="1.000000" stroke="none" 
	d="
M837.057068,1086.874268 
	C847.444824,1112.281494 857.718323,1137.322021 867.982788,1162.340454 
	C867.419800,1162.660645 867.170654,1162.922363 866.911987,1162.932251 
	C854.215393,1163.414551 854.263123,1163.393555 849.581543,1151.444214 
	C847.413940,1145.911621 846.433777,1138.459351 842.320190,1135.562012 
	C838.385071,1132.790527 831.085327,1134.761230 825.263916,1134.713257 
	C819.598022,1134.666382 813.923950,1134.877441 808.268127,1134.634399 
	C805.116882,1134.499023 803.546753,1135.453369 802.518616,1138.567871 
	C799.818787,1146.746094 796.716858,1154.791504 793.814636,1162.781250 
	C789.374512,1162.781250 785.275940,1162.781250 780.628540,1162.781250 
	C785.170959,1150.950928 789.563904,1139.500977 793.963623,1128.053589 
	C800.940369,1109.901001 808.013977,1091.784668 814.817505,1073.567383 
	C816.068237,1070.218506 817.653809,1068.660278 821.259888,1069.183105 
	C823.055420,1069.443481 825.034912,1068.841675 826.719666,1069.342041 
	C828.307739,1069.813843 830.260010,1070.903809 830.933899,1072.272461 
	C833.205261,1076.885376 834.978882,1081.743408 837.057068,1086.874268 
M824.761902,1084.792480 
	C824.229248,1083.564575 823.696594,1082.336548 823.208130,1081.210571 
	C818.056030,1095.673462 813.017212,1109.818115 807.873718,1124.256958 
	C818.457397,1124.256958 828.603210,1124.256958 839.111206,1124.256958 
	C834.286926,1111.060303 829.624084,1098.305298 824.761902,1084.792480 
z"/>
<path fill="#2A8938" opacity="1.000000" stroke="none" 
	d="
M1551.566895,1163.010498 
	C1548.127686,1163.010864 1545.136475,1163.010864 1541.609131,1163.010864 
	C1542.155029,1161.144897 1542.492676,1159.594604 1543.054077,1158.130249 
	C1553.824219,1130.042725 1564.652100,1101.977417 1575.366211,1073.868774 
	C1576.526001,1070.825928 1577.618530,1068.420776 1581.565430,1069.197754 
	C1585.499634,1069.972168 1589.984375,1067.270508 1592.511597,1073.698120 
	C1603.579712,1101.846191 1615.299072,1129.737915 1626.765259,1157.729614 
	C1627.381836,1159.234741 1627.846802,1160.802124 1628.614868,1163.008423 
	C1624.380127,1163.008423 1620.611328,1163.237915 1616.900391,1162.874878 
	C1615.720947,1162.759521 1614.186279,1161.278320 1613.683716,1160.062622 
	C1610.700073,1152.846313 1607.855591,1145.565918 1605.220337,1138.215332 
	C1604.297607,1135.641479 1603.113525,1134.584717 1600.249756,1134.632324 
	C1589.588501,1134.810059 1578.920288,1134.814941 1568.259277,1134.629517 
	C1565.372070,1134.579224 1564.166260,1135.660767 1563.299072,1138.234375 
	C1560.858643,1145.477905 1558.289795,1152.683960 1555.501709,1159.799194 
	C1554.983521,1161.121826 1553.209351,1161.952393 1551.566895,1163.010498 
M1580.994751,1089.432983 
	C1576.877319,1100.910767 1572.760010,1112.388550 1568.509277,1124.238281 
	C1579.247314,1124.238281 1589.367432,1124.238281 1599.812622,1124.238281 
	C1594.327148,1109.384033 1589.007080,1094.977661 1583.494385,1080.050171 
	C1582.625488,1083.300537 1581.909424,1085.979126 1580.994751,1089.432983 
z"/>
<path fill="#2A8938" opacity="1.000000" stroke="none" 
	d="
M1672.961548,1079.135742 
	C1671.729736,1075.844604 1670.604492,1072.925659 1669.182495,1069.237305 
	C1673.368652,1069.237305 1677.000488,1068.866699 1680.483765,1069.423950 
	C1681.833374,1069.639893 1683.366577,1071.767700 1683.936035,1073.342896 
	C1693.256348,1099.118164 1702.435669,1124.944458 1711.836914,1151.292358 
	C1712.381592,1149.940918 1712.860718,1148.836060 1713.276367,1147.707886 
	C1722.521729,1122.609741 1731.793213,1097.520996 1740.946777,1072.389404 
	C1741.835205,1069.950195 1743.043823,1068.980103 1745.627197,1069.180054 
	C1748.418457,1069.396240 1751.239380,1069.229004 1754.496216,1069.229004 
	C1753.863403,1071.234375 1753.462280,1072.816040 1752.873535,1074.324585 
	C1741.880127,1102.491943 1730.674561,1130.578979 1720.012817,1158.871094 
	C1717.858765,1164.587524 1713.976807,1162.586060 1710.392334,1163.008667 
	C1707.156616,1163.390259 1705.184937,1162.662109 1703.799316,1159.001465 
	C1693.742188,1132.432983 1683.352417,1105.990234 1672.961548,1079.135742 
z"/>
<path fill="#2F8C3C" opacity="1.000000" stroke="none" 
	d="
M1329.585327,1110.000000 
	C1329.585205,1127.785278 1329.585205,1145.070557 1329.585205,1162.687866 
	C1325.367188,1162.687866 1321.493164,1162.687866 1317.139893,1162.687866 
	C1317.139893,1135.397095 1317.139893,1108.183350 1317.139893,1080.418579 
	C1306.623413,1080.418579 1296.564575,1080.418579 1286.328613,1080.418579 
	C1286.328613,1076.576294 1286.328613,1073.287354 1286.328613,1069.603271 
	C1310.912842,1069.603271 1335.428345,1069.603271 1360.265625,1069.603271 
	C1360.265625,1073.035645 1360.265625,1076.430664 1360.265625,1080.292480 
	C1350.183960,1080.292480 1340.263550,1080.292480 1329.585449,1080.292480 
	C1329.585449,1090.324097 1329.585449,1099.912109 1329.585327,1110.000000 
z"/>
<path fill="#211D19" opacity="1.000000" stroke="none" 
	d="
M260.857361,927.282593 
	C267.391632,933.453979 273.733246,939.921326 280.186951,946.719482 
	C269.152100,967.402405 258.297668,987.925537 246.586182,1007.947388 
	C244.499146,1011.515320 239.088470,1013.603821 234.783951,1015.265076 
	C231.243896,1016.631348 228.969925,1013.630066 229.195297,1010.255188 
	C229.523605,1005.338806 229.974075,1000.221619 231.628448,995.643982 
	C235.732986,984.286499 240.363831,973.106628 245.130615,962.004578 
	C250.096664,950.438232 255.469635,939.046570 260.857361,927.282593 
z"/>
<path fill="#288836" opacity="1.000000" stroke="none" 
	d="
M212.169495,1130.000000 
	C212.169525,1141.137939 212.169525,1151.775879 212.169525,1162.708740 
	C208.136688,1162.708740 204.382950,1162.708740 200.131134,1162.708740 
	C200.131134,1135.573975 200.131134,1108.348999 200.131134,1080.566772 
	C189.606491,1080.566772 179.555344,1080.566772 169.252380,1080.566772 
	C169.252380,1076.602783 169.252380,1073.196655 169.252380,1069.511963 
	C193.785965,1069.511963 218.184082,1069.511963 242.876144,1069.511963 
	C242.876144,1073.097900 242.876144,1076.512695 242.876144,1080.349609 
	C232.816010,1080.349609 222.863449,1080.349609 212.169479,1080.349609 
	C212.169479,1097.005249 212.169479,1113.252686 212.169495,1130.000000 
z"/>
<path fill="#268734" opacity="1.000000" stroke="none" 
	d="
M1946.517944,1142.999512 
	C1946.518066,1118.243774 1946.518066,1093.988037 1946.518066,1069.489624 
	C1950.837646,1069.489624 1954.586792,1069.489624 1958.746338,1069.489624 
	C1958.746338,1096.820068 1958.746338,1124.037964 1958.746338,1151.698120 
	C1974.197754,1151.698120 1989.253784,1151.698120 2004.667603,1151.698120 
	C2004.667603,1155.525146 2004.667603,1158.922852 2004.667603,1162.664185 
	C1985.630005,1162.664185 1966.410156,1162.664185 1946.517822,1162.664185 
	C1946.517822,1156.350830 1946.517822,1149.925049 1946.517944,1142.999512 
z"/>
<path fill="#FEFEFE" opacity="1.000000" stroke="none" 
	d="
M2073.682861,917.756470 
	C2048.102295,918.203491 2022.973145,919.073792 1997.854736,918.832703 
	C1982.576538,918.686096 1968.105103,914.636597 1954.746582,906.443970 
	C1932.331055,892.696472 1933.159058,856.464783 1958.898071,842.746948 
	C1973.142456,835.155273 1988.480469,831.828491 2004.248047,830.095825 
	C2034.053345,826.820801 2063.814209,829.258911 2093.564941,831.308838 
	C2094.199219,831.352539 2094.817139,831.634216 2095.644043,831.859741 
	C2095.644043,859.390198 2095.644043,886.821411 2095.644043,914.916260 
	C2088.522705,915.841797 2081.330566,916.776550 2073.682861,917.756470 
z"/>
<path fill="#FFFFFF" opacity="1.000000" stroke="none" 
	d="
M542.811401,919.203308 
	C515.105042,916.169922 491.351990,906.818176 475.687897,882.635132 
	C467.464661,869.939575 463.075989,855.923462 461.496765,841.020203 
	C459.243073,819.752014 460.287689,798.798157 468.604218,778.711060 
	C477.750305,756.620422 493.649658,741.486328 516.461792,734.551086 
	C547.820435,725.017700 579.567810,724.940613 610.876343,734.605225 
	C637.262939,742.750549 654.395691,760.908020 662.255249,787.355408 
	C669.804993,812.760132 669.722900,838.373901 661.284546,863.499756 
	C651.212463,893.490234 629.389526,910.503723 598.915100,916.955078 
	C580.518311,920.849731 561.925232,921.204529 542.811401,919.203308 
z"/>
<path fill="#FEFEFE" opacity="1.000000" stroke="none" 
	d="
M1176.373047,893.443848 
	C1167.447021,872.257507 1174.451782,852.610535 1194.453491,841.927551 
	C1208.048096,834.666870 1222.880005,831.766602 1237.960083,830.107300 
	C1267.904541,826.812500 1297.804565,829.255371 1327.693604,831.337646 
	C1328.167969,831.370728 1328.627197,831.620850 1329.428955,831.876648 
	C1329.428955,859.358154 1329.428955,886.888550 1329.428955,915.140808 
	C1318.446045,916.341064 1307.444458,917.944336 1296.385132,918.670410 
	C1271.619995,920.296448 1246.811157,921.029358 1222.097046,917.986206 
	C1207.528809,916.192444 1193.769775,911.942566 1182.789551,901.490356 
	C1180.416382,899.231384 1178.628784,896.357056 1176.373047,893.443848 
z"/>
<path fill="#FDFEFD" opacity="1.000000" stroke="none" 
	d="
M1475.074585,1091.508545 
	C1475.827637,1102.596069 1471.020996,1109.145386 1460.412842,1109.832642 
	C1449.178223,1110.560425 1437.859863,1109.995972 1426.222412,1109.995972 
	C1426.222412,1100.345825 1426.222412,1090.316528 1426.222412,1080.167358 
	C1438.135864,1080.167358 1449.929443,1079.742065 1461.671509,1080.336304 
	C1468.103149,1080.661743 1473.474976,1083.898193 1475.074585,1091.508545 
z"/>
<path fill="#FCFEFD" opacity="1.000000" stroke="none" 
	d="
M605.015015,1079.816650 
	C613.162048,1079.871704 620.825256,1079.664062 628.459106,1080.045532 
	C639.077026,1080.576172 644.580933,1086.434204 644.064209,1096.024414 
	C643.671692,1103.310425 638.528564,1109.202515 630.101318,1109.722046 
	C618.549988,1110.434204 606.921753,1109.900024 594.959167,1109.900024 
	C594.959167,1100.417236 594.959167,1090.515869 594.959167,1079.816528 
	C598.028992,1079.816528 601.273560,1079.816528 605.015015,1079.816650 
z"/>
<path fill="#FEFEFE" opacity="1.000000" stroke="none" 
	d="
M1132.319336,1092.861816 
	C1138.783813,1107.478882 1138.484253,1122.004150 1133.392822,1136.446655 
	C1129.645020,1147.078125 1120.907837,1151.171631 1110.380615,1151.682861 
	C1102.106567,1152.084717 1093.797363,1151.763428 1085.189697,1151.763428 
	C1085.189697,1128.102905 1085.189697,1104.565552 1085.189697,1079.785034 
	C1096.324219,1080.472168 1107.383179,1080.751953 1118.334717,1081.986328 
	C1124.586182,1082.690918 1128.984741,1087.107544 1132.319336,1092.861816 
z"/>
<path fill="#FDFEFE" opacity="1.000000" stroke="none" 
	d="
M309.499878,1084.413574 
	C330.516174,1070.344116 356.237366,1081.237671 359.716919,1105.937134 
	C360.870575,1114.126099 360.428528,1122.967041 358.636993,1131.049072 
	C355.523102,1145.096313 344.422607,1153.401123 330.750305,1153.941650 
	C315.923187,1154.527588 305.103485,1147.423340 299.686859,1133.728516 
	C294.500488,1120.615723 295.865662,1095.012207 309.499878,1084.413574 
z"/>
<path fill="#F7FBF8" opacity="1.000000" stroke="none" 
	d="
M824.861572,1085.171387 
	C829.624084,1098.305298 834.286926,1111.060303 839.111206,1124.256958 
	C828.603210,1124.256958 818.457397,1124.256958 807.873718,1124.256958 
	C813.017212,1109.818115 818.056030,1095.673462 823.208130,1081.210571 
	C823.696594,1082.336548 824.229248,1083.564575 824.861572,1085.171387 
z"/>
<path fill="#F7FBF8" opacity="1.000000" stroke="none" 
	d="
M1581.093994,1089.045410 
	C1581.909424,1085.979126 1582.625488,1083.300537 1583.494385,1080.050171 
	C1589.007080,1094.977661 1594.327148,1109.384033 1599.812622,1124.238281 
	C1589.367432,1124.238281 1579.247314,1124.238281 1568.509277,1124.238281 
	C1572.760010,1112.388550 1576.877319,1100.910767 1581.093994,1089.045410 
z"/>
</svg>