<svg clip-rule="evenodd" fill-rule="evenodd" height="116.944" image-rendering="optimizeQuality" shape-rendering="geometricPrecision" text-rendering="geometricPrecision" viewBox="0 0 2604.299 1218.157" width="250" xmlns="http://www.w3.org/2000/svg"><g transform="matrix(.42025 0 0 .42025 -476.565 -2031.305)"><path d="m2956 5178s-78-115-236-71c-178 50-22 300 405 307s436-340-83-515c-505-171-652 24-528 185 0 0-21-87 43-139 59-49 201-74 430 12 510 192 332 403 32 353-370-61-304-204-63-131z" fill="#c1353b"/><path d="m3445 5408s-184 180-600 72c-399-104-460-446-460-446s-365 790 236 989c529 175 999-794 824-614z" fill="#c1353b"/><path d="m2757 6273s287-619 1232 117c0 0-53 12-173 83-28 16-297 209-584 268-148 30-327 16-426-60-297-228 105-468 653-345 0 0-522-22-620 130-74 114 67 192 359 182 292-9 604-309 604-309s-648-422-1045-66z" fill="#c1353b"/><path d="m1902 7416c-30 70-55 126-71 160-107 226 1 139 1 139 29-49 76-134 131-239l-60-61z" fill="#373435"/><path d="m2607 6081c-135-94-193 117-193 117s-256 619-435 1039l71 72c192-370 423-834 423-834s203-346 134-394z" fill="#373435"/><g fill="#47974a"><path d="m2740 7460c101 0 176-24 224-73s73-116 73-203-24-154-73-202c-48-48-123-72-224-72s-176 24-223 72c-48 48-72 116-72 202 0 87 24 154 72 203s122 73 223 73zm0 115c-88 0-165-10-231-30s-121-47-165-83c-44-35-77-76-98-124s-32-99-32-155 11-107 32-155 54-89 98-124 99-63 165-83 143-31 231-31 165 10 231 31c66 20 121 48 165 83s77 76 98 124 32 99 32 155-11 107-32 155-54 89-98 124-99 63-165 83-143 30-231 30z"/><path d="m3422 7422c40 11 83 19 131 26 48 6 95 9 142 9 34 0 66-2 97-7s58-12 80-22c23-10 41-22 55-36s21-30 21-47c0-19-6-36-16-48-11-13-26-23-44-32s-40-16-64-23c-24-6-50-12-78-18l-77-19c-94-23-162-50-205-79s-64-69-64-118c0-66 36-119 107-158s176-58 314-58c57 0 113 4 168 11s103 16 144 26c-3 19-8 39-16 58s-18 38-30 54c-32-8-71-15-115-23-45-7-93-11-144-11-54 0-102 6-144 19s-63 35-63 67c0 17 5 31 15 42 10 12 24 22 42 30s38 15 61 21 47 12 74 18l97 22c35 8 69 17 100 28 32 11 59 24 81 40 23 16 41 36 55 58 14 23 21 50 21 83 0 36-11 69-33 99s-53 55-93 76-89 37-146 49-120 18-189 18c-70 0-132-3-185-10-53-6-102-15-147-26 3-19 9-39 19-59s20-40 32-59z"/><path d="m4929 7206c-22-2-50-4-84-6s-62-3-86-3c-91 0-160 11-208 34-48 22-72 56-72 102 0 29 8 52 24 69s36 29 61 38c24 9 51 14 80 16s57 3 84 3c34 0 69-1 105-4 36-2 68-6 96-11zm0-142c0-57-22-97-66-120-44-22-108-34-191-34-51 0-99 3-144 8s-88 12-131 21c-28-32-42-71-42-115 50-11 105-19 165-25s118-9 174-9c147 0 258 22 334 66s114 115 114 213v469c-51 8-114 16-187 24s-148 12-224 12c-72 0-137-4-195-13s-107-23-147-42-72-44-93-74c-22-30-33-67-33-110 0-42 13-79 38-110 26-32 61-58 105-79s95-37 152-47 117-15 180-15c47 0 85 1 116 2 30 1 55 3 76 5v-28z"/><path d="m5360 6809c16-2 32-3 47-4s31-1 47-1 31 1 45 1c14 1 29 2 45 4 4 15 9 34 13 59s7 46 7 62c15-17 33-33 56-50s49-31 78-45c29-13 63-24 101-32s80-12 125-12c129 0 224 25 286 74s92 122 92 218v475c-16 2-34 3-55 4s-39 1-55 1-34 0-54-1-38-2-54-4v-435c0-69-16-120-48-153s-84-49-154-49c-41 0-80 5-117 15s-69 25-97 45-50 47-67 80-25 72-25 118v380c-16 2-34 3-54 4s-38 1-54 1-35 0-55-1c-21-1-39-2-55-4v-749z"/><path d="m7118 7206c-22-2-50-4-84-6s-62-3-86-3c-91 0-160 11-208 34-48 22-71 56-71 102 0 29 8 52 24 69s36 29 60 38 51 14 80 16 57 3 84 3c34 0 69-1 104-4 36-2 68-6 96-11v-238zm0-142c0-57-22-97-66-120-44-22-108-34-191-34-51 0-99 3-144 8s-88 12-131 21c-28-32-42-71-42-115 50-11 105-19 165-25s118-9 174-9c147 0 258 22 334 66s114 115 114 213v469c-51 8-114 16-187 24s-148 12-224 12c-72 0-137-4-195-13s-107-23-147-42-72-44-94-74-33-67-33-110c0-42 13-79 38-110 26-32 61-58 105-79s95-37 152-47 117-15 180-15c47 0 85 1 116 2 30 1 55 3 76 5v-28z"/><path d="m1134 6445c32-2 328-74 561-41 73 10 139 28 196 54s203 107 194 310c-2 40-10 77-29 110s-43 62-73 88c-29 26-63 48-100 67s-74 35-109 47l-26 9 460 468c-40 3-84 5-134 5-40 0-79-2-119-5l-506-515v-6l18-3c40-7 81-17 125-29s85-29 122-49 69-44 94-73c76-87 88-225-56-308-62-36-195-65-393-8v991c-16 1-34 2-54 3s-38 2-56 2-37 0-57-1c-21-1-40-2-57-4v-1113z"/></g></g></svg>