<?xml version="1.0" encoding="UTF-8"?>
<!DOCTYPE svg PUBLIC "-//W3C//DTD SVG 1.1//EN" "http://www.w3.org/Graphics/SVG/1.1/DTD/svg11.dtd">
<!-- Creator: CorelDRAW 2017 -->
<svg xmlns="http://www.w3.org/2000/svg" xml:space="preserve" width="100px" height="100px" version="1.1" shape-rendering="geometricPrecision" text-rendering="geometricPrecision" image-rendering="optimizeQuality" fill-rule="evenodd" clip-rule="evenodd"
viewBox="0 0 100 100"
 xmlns:xlink="http://www.w3.org/1999/xlink">
 <g id="Layer_x0020_1">
  <metadata id="CorelCorpID_0Corel-Layer"/>
  <g id="_2100754169872">
   <path fill="#FEFEFE" d="M9.75 14.46c-5.92,-1.52 -9.69,-1.34 -9.75,5.33l0.01 51.24c0,7.51 -0.26,8.6 6.88,10.01l28.48 5.75c3.27,0.65 11.74,2.76 14.42,2.76 2.16,0.01 24.74,-4.78 28.79,-5.61 20.3,-4.14 21.28,-2.21 21.26,-12.91 -0.03,-16.02 0.37,-35.59 0,-51.23 -0.14,-6.16 -4.29,-7.67 -9.83,-5.18 -0.88,9.57 0.26,39.63 -0.07,52.69 -0.14,5.09 -2.51,5.51 -7.03,6.4l-22.23 4.46c-13.64,2.74 -8.2,2.73 -22.07,-0.1l-22.24 -4.46c-4.34,-0.83 -6.43,-1.57 -6.57,-6.3 -0.45,-15.47 0.84,-39.45 -0.05,-52.85z"/>
   <path fill="#FEFEFE" d="M15.03 67.07l32.31 6.37 -0.02 -58.52c-6.56,-1.37 -13.44,-2.28 -19.98,-3.43 -14.98,-2.63 -12.43,-2.53 -12.43,32.06 0,6.59 -0.64,17.44 0.12,23.52z"/>
   <path fill="#FEFEFE" d="M52.53 15.05l-0.11 58.18 32.33 -5.99c0.55,-7.08 0.07,-37.41 0.08,-47.01 0,-11.27 -2.24,-10.54 -12.2,-8.76 -5.29,0.95 -15.64,2.02 -20.1,3.58z"/>
  </g>
 </g>
</svg>
