<svg xmlns="http://www.w3.org/2000/svg" width="34" height="33" fill="none" viewBox="0 0 34 33">
  <path fill="#fff" fill-rule="evenodd" d="M7.058 5.521l.46 1.862c7.02.453 9.51 1.432 12.544-1.872V4.133h2.051c1.88 0 3.409 1.54 3.409 3.433v22c0 1.895-1.528 3.434-3.409 3.434H4.365c-1.88 0-3.408-1.54-3.408-3.434v-22c0-1.894 1.528-3.433 3.408-3.433h2.703l-.01 1.378v.01z" clip-rule="evenodd"/>
  <path fill="#fff" fill-rule="evenodd" d="M6.406 4.682V3.444c0-.377.31-.689.684-.689h2.8C10.21 1.184 11.587 0 13.233 0c1.645 0 3.024 1.184 3.344 2.755h2.8c.374 0 .684.313.684.69V4.95L6.406 4.682zm13.656.27V6.2a2.06 2.06 0 01-2.052 2.066H8.457A2.06 2.06 0 016.406 6.2V4.682l13.656.27zM7.774 4.132V6.2c0 .376.31.688.683.688h9.553a.691.691 0 00.684-.688V4.133h-2.736a.691.691 0 01-.683-.689 2.06 2.06 0 00-2.052-2.066 2.06 2.06 0 00-2.052 2.066c0 .377-.31.69-.683.69H7.752h.022z" clip-rule="evenodd"/>
  <path fill="#DCDDDD" fill-rule="evenodd" d="M30.982 28.899a.694.694 0 01-.61-.377l-1.762-3.54a3.502 3.502 0 01-.363-1.54v-12.42c0-1.518 1.228-2.756 2.735-2.756s2.735 1.238 2.735 2.755v12.421c0 .527-.128 1.066-.363 1.54l-1.763 3.54a.674.674 0 01-.609.377zm-1.368-7.319v1.851c0 .323.075.635.214.926l1.154 2.314 1.154-2.314c.139-.28.214-.603.214-.926V21.56l-2.736.01v.011z" clip-rule="evenodd"/>
  <path fill="#FCBC37" fill-rule="evenodd" d="M20.746 13.766H5.722a.691.691 0 01-.684-.689c0-.376.31-.688.684-.688h15.024c.374 0 .684.312.684.688 0 .377-.31.69-.684.69zM20.746 17.888H5.722a.691.691 0 01-.684-.689c0-.376.31-.688.684-.688h15.024c.374 0 .684.312.684.689 0 .376-.31.688-.684.688zM20.746 22.021H5.722a.691.691 0 01-.684-.689c0-.376.31-.688.684-.688h15.024c.374 0 .684.312.684.689 0 .376-.31.688-.684.688zM20.746 26.144H5.722a.691.691 0 01-.684-.689c0-.377.31-.689.684-.689h15.024c.374 0 .684.312.684.689 0 .377-.31.689-.684.689z" clip-rule="evenodd"/>
</svg>
