<?xml version="1.0" encoding="UTF-8"?>
<!DOCTYPE svg PUBLIC "-//W3C//DTD SVG 1.0//EN" "http://www.w3.org/TR/2001/REC-SVG-20010904/DTD/svg10.dtd">
<!-- Creator: CorelDRAW 2017 -->
<svg xmlns="http://www.w3.org/2000/svg" xml:space="preserve" width="100px" height="100px" version="1.0" shape-rendering="geometricPrecision" text-rendering="geometricPrecision" image-rendering="optimizeQuality" fill-rule="evenodd" clip-rule="evenodd"
viewBox="0 0 100 100"
 xmlns:xlink="http://www.w3.org/1999/xlink">
 <g id="Layer_x0020_1">
  <metadata id="CorelCorpID_0Corel-Layer"/>
  <path fill="#FEFEFE" d="M50 100c27.62,0 50,-22.38 50,-50 0,-27.62 -22.38,-50 -50,-50 -27.62,0 -50,22.38 -50,50 0,27.62 22.38,50 50,50zm9.9 -36.5l-28.18 10.84c-3.79,1.46 -7.52,-2.27 -6.06,-6.06l10.84 -28.18c0.65,-1.66 1.94,-2.95 3.6,-3.6l28.18 -10.84c3.79,-1.46 7.52,2.27 6.06,6.06l-10.84 28.18c-0.63,1.66 -1.94,2.95 -3.6,3.6zm-3.65 -13.5c0,-3.46 -2.79,-6.25 -6.25,-6.25 -3.46,0 -6.25,2.79 -6.25,6.25 0,3.46 2.79,6.25 6.25,6.25 3.46,0 6.25,-2.79 6.25,-6.25z"/>
 </g>
</svg>
