<?xml version="1.0" encoding="UTF-8"?>
<!DOCTYPE svg PUBLIC "-//W3C//DTD SVG 1.0//EN" "http://www.w3.org/TR/2001/REC-SVG-20010904/DTD/svg10.dtd">
<!-- Creator: CorelDRAW 2017 -->
<svg xmlns="http://www.w3.org/2000/svg" xml:space="preserve" width="100px" height="100px" version="1.0" shape-rendering="geometricPrecision" text-rendering="geometricPrecision" image-rendering="optimizeQuality" fill-rule="evenodd" clip-rule="evenodd"
viewBox="0 0 100 100"
 xmlns:xlink="http://www.w3.org/1999/xlink">
 <g id="Layer_x0020_1">
  <metadata id="CorelCorpID_0Corel-Layer"/>
  <path fill="#FEFEFE" d="M49.99 11.11c-14.03,0 -25.26,6.39 -33.43,14 -8.13,7.53 -13.56,16.56 -16.13,22.75 -0.57,1.38 -0.57,2.9 0,4.28 2.57,6.19 8,15.22 16.13,22.75 8.17,7.61 19.4,14 33.43,14 14.03,0 25.26,-6.39 33.44,-14 8.12,-7.55 13.55,-16.56 16.14,-22.75 0.57,-1.38 0.57,-2.9 0,-4.28 -2.59,-6.19 -8.02,-15.22 -16.14,-22.75 -8.18,-7.61 -19.41,-14 -33.44,-14zm25 38.89c0,13.8 -11.2,25 -25,25 -13.8,0 -25,-11.2 -25,-25 0,-13.8 11.2,-25 25,-25 13.8,0 25,11.2 25,25zm-25 -11.11c0,6.13 -4.98,11.11 -11.11,11.11 -2,0 -3.87,-0.52 -5.48,-1.46 -0.04,0.49 -0.07,0.96 -0.07,1.46 0,9.2 7.46,16.67 16.66,16.67 9.2,0 16.67,-7.47 16.67,-16.67 0,-9.2 -7.47,-16.67 -16.67,-16.67 -0.48,0 -0.97,0.02 -1.46,0.07 0.92,1.62 1.46,3.49 1.46,5.49z"/>
 </g>
</svg>
