<?xml version="1.0" encoding="UTF-8"?>
<!DOCTYPE svg PUBLIC "-//W3C//DTD SVG 1.0//EN" "http://www.w3.org/TR/2001/REC-SVG-20010904/DTD/svg10.dtd">
<!-- Creator: CorelDRAW 2017 -->
<svg xmlns="http://www.w3.org/2000/svg" xml:space="preserve" width="100px" height="100px" version="1.0" shape-rendering="geometricPrecision" text-rendering="geometricPrecision" image-rendering="optimizeQuality" fill-rule="evenodd" clip-rule="evenodd"
viewBox="0 0 100 100"
 xmlns:xlink="http://www.w3.org/1999/xlink">
 <g id="Layer_x0020_1">
  <metadata id="CorelCorpID_0Corel-Layer"/>
  <path fill="#FEFEFE" d="M6.06 10.8c-1.62,-1.28 -3.98,-0.99 -5.26,0.64 -1.28,1.62 -0.99,3.98 0.64,5.26l92.5 72.5c1.62,1.28 3.98,0.99 5.26,-0.64 1.28,-1.62 0.99,-3.98 -0.64,-5.26l-16.43 -12.88c6.18,-6.34 10.37,-13.45 12.48,-18.5 0.52,-1.23 0.52,-2.61 0,-3.84 -2.33,-5.58 -7.22,-13.7 -14.53,-20.49 -7.35,-6.84 -17.46,-12.59 -30.08,-12.59 -10.66,0 -19.53,4.11 -26.45,9.5l-17.49 -13.7zm28.8 22.56c3.98,-3.64 9.31,-5.86 15.14,-5.86 12.42,0 22.5,10.08 22.5,22.5 0,3.89 -0.98,7.55 -2.72,10.73l-6.03 -4.71c0.81,-1.85 1.25,-3.88 1.25,-6.02 0,-8.28 -6.72,-15 -15,-15 -0.44,0 -0.88,0.02 -1.31,0.06 0.83,1.46 1.31,3.14 1.31,4.94 0,1.59 -0.37,3.09 -1.03,4.42l-14.11 -11.06zm34.86 46.56l-11.44 -9c-2.56,1.02 -5.36,1.58 -8.28,1.58 -12.42,0 -22.5,-10.08 -22.5,-22.5 0,-1.08 0.08,-2.12 0.22,-3.16l-14.74 -11.61c-3.56,4.65 -6.1,9.27 -7.59,12.85 -0.52,1.23 -0.52,2.61 0,3.84 2.33,5.58 7.22,13.7 14.53,20.49 7.35,6.84 17.46,12.59 30.08,12.59 7.47,0 14.05,-2.02 19.72,-5.08z"/>
 </g>
</svg>
