<?xml version="1.0" encoding="UTF-8"?>
<!DOCTYPE svg PUBLIC "-//W3C//DTD SVG 1.0//EN" "http://www.w3.org/TR/2001/REC-SVG-20010904/DTD/svg10.dtd">
<!-- Creator: CorelDRAW 2017 -->
<svg xmlns="http://www.w3.org/2000/svg" xml:space="preserve" width="100px" height="100px" version="1.0" shape-rendering="geometricPrecision" text-rendering="geometricPrecision" image-rendering="optimizeQuality" fill-rule="evenodd" clip-rule="evenodd"
viewBox="0 0 100 100"
 xmlns:xlink="http://www.w3.org/1999/xlink">
 <g id="Layer_x0020_1">
  <metadata id="CorelCorpID_0Corel-Layer"/>
  <path fill="#FEFEFE" d="M61.98 11.01l-25.13 19.16c1.5,0.28 2.95,0.9 4.22,1.87l26.25 20c2.06,1.58 3.44,3.89 3.83,6.47l0.97 6.48 22.89 0c1.45,0 2.84,-0.64 3.78,-1.73 0.94,-1.09 1.37,-2.56 1.16,-4l-3.75 -25c-0.19,-1.28 -0.88,-2.45 -1.93,-3.23l-26.25 -20c-1.79,-1.36 -4.26,-1.36 -6.06,0l0.02 -0.02zm-23.94 25c-1.8,-1.36 -4.27,-1.36 -6.06,0l-26.25 20c-1.03,0.78 -1.72,1.95 -1.92,3.23l-3.75 25c-0.22,1.44 0.2,2.91 1.15,4 0.95,1.1 2.35,1.75 3.8,1.75l30 0 0 -25 15 25 15 0c1.45,0 2.84,-0.64 3.78,-1.73 0.94,-1.09 1.37,-2.56 1.16,-4l-3.75 -25c-0.19,-1.28 -0.88,-2.45 -1.93,-3.24l-26.25 -19.99 0.02 -0.02z"/>
 </g>
</svg>
