<svg xmlns="http://www.w3.org/2000/svg" width="31" height="37" fill="none" viewBox="0 0 31 37">
  <path fill="#fff" d="M23.192 31.035h-.423c-.66-3.862-.767-7.824-3.057-10.086-2.243-2.216-5.176-2.901-7.123-4.694v-.84a.533.533 0 000-.96v-.357a.304.304 0 00.076-.2c0-.168-.303-1.036-.303-1.036s-.302.868-.302 1.037c0 .076.029.146.075.2v.356a.533.533 0 000 .96v.84c-1.946 1.793-4.88 2.478-7.122 4.694-2.29 2.262-2.397 6.224-3.057 10.087h-.423l-.727 1.89h23.112l-.726-1.89zM4.998 30.96h-.82V29.77h.82v1.19zm2.591 0h-.82V29.77h.82v1.19zm2.592 0h-.82V29.77h.82v1.19zm2.592 0h-.821V29.77h.82v1.19zm2.591 0h-.82V29.77h.82v1.19zm2.592 0h-.82V29.77h.82v1.19zm2.591 0h-.82V29.77h.82v1.19z"/>
  <path fill="#fff" d="M29.41 23.754v-.9l-.977-.86-1.248 1.098-1.25-1.098-.974.858v.902h-1.59v2.988h1.149v7.16H0v2.927h29.851V26.742H31v-2.988h-1.59zm-1.152 9.67h-2.145v-2.928h.297v-1.152l.776-.768.775.768v1.152h.297v2.928z"/>
  <path fill="#fff" d="M25.936 19.524l-.975.858v1.863l.975-.858 1.249 1.098 1.248-1.098.978.86v-1.864l-.978-.859-1.248 1.098-1.249-1.098z"/>
  <path fill="#fff" d="M24.287 16.832l.674 2.112v.83l.975-.857 1.249 1.098 1.248-1.098.978.86v-.834l.673-2.11h-.673V8.331l.673-2.111h-1.79V4.379c0-.538-.378-.987-.881-1.093v-.732a.533.533 0 000-.96v-.357a.303.303 0 00.075-.2c0-.169-.302-1.037-.302-1.037s-.303.868-.303 1.037c0 .077.03.146.076.2v.356a.533.533 0 000 .96v.733a1.115 1.115 0 00-.882 1.093v1.842h-1.79l.674 2.111v8.5h-.674zm2.292-7.329h.168v-.652l.439-.435.439.435v.652h.167v1.658H26.58V9.503zm0 3.933h.168v-.651l.439-.435.439.435v.651h.167v1.658H26.58v-1.658z"/>
</svg>
