<svg xmlns="http://www.w3.org/2000/svg" width="34" height="39" fill="none" viewBox="0 0 34 39">
  <path fill="#FEFEFE" fill-rule="evenodd" d="M23.793 21.906h-1.266a13.224 13.224 0 01-5.531 1.216c-1.974 0-3.84-.441-5.531-1.216h-1.267C4.568 21.906 0 26.485 0 32.127v3.166a3.65 3.65 0 003.643 3.651h26.714A3.65 3.65 0 0034 35.293v-3.166c0-5.642-4.569-10.221-10.198-10.221h-.009zM16.996 19.47c5.366 0 9.713-4.356 9.713-9.735S22.362 0 16.996 0c-5.367 0-9.713 4.356-9.713 9.735s4.346 9.735 9.713 9.735z" clip-rule="evenodd"/>
  <path fill="#DCDDDD" fill-rule="evenodd" d="M23.793 21.906h-1.266a13.224 13.224 0 01-5.531 1.216C11.477 25.24 1.628 38.944 3.639 38.944h26.713a3.65 3.65 0 003.644-3.651v-3.166c0-5.642-4.569-10.221-10.199-10.221h-.004z" clip-rule="evenodd"/>
</svg>
