<svg xmlns="http://www.w3.org/2000/svg" width="36" height="28" fill="none" viewBox="0 0 36 28">
  <path fill="#fff" d="M5.649 0h-.003C5.313 0 5 .13 4.765.368c-.239.24-.37.558-.37.898v18.986c0 .696.565 1.264 1.259 1.265 2.925.008 7.827.622 11.209 4.186V5.835c0-.237-.06-.458-.173-.642C13.914.691 8.58.007 5.649 0zM31.282 20.252V1.266c0-.34-.132-.659-.37-.898a1.234 1.234 0 00-.88-.368h-.004c-2.932.007-8.266.691-11.041 5.193a1.22 1.22 0 00-.173.642v19.868c3.382-3.564 8.284-4.179 11.21-4.186a1.266 1.266 0 001.258-1.265z"/>
  <path fill="#DCDDDD" d="M34.144 4.378h-.911v15.874c0 1.777-1.438 3.227-3.205 3.231-2.482.006-6.574.495-9.472 3.258 5.012-1.236 10.296-.433 13.307.258.376.087.765-.002 1.066-.244.3-.241.472-.602.472-.99V5.646c0-.699-.564-1.267-1.257-1.267zM2.443 20.252V4.378h-.91c-.694 0-1.258.568-1.258 1.266v20.121c0 .388.173.748.473.99.3.241.689.33 1.065.244 3.012-.691 8.295-1.495 13.307-.259-2.898-2.762-6.99-3.25-9.471-3.257-1.768-.004-3.206-1.454-3.206-3.231z"/>
  <path fill="#FCBC37" fill-rule="evenodd" d="M29.47 6.518h-8.473c-.21 0-.386-.211-.386-.466 0-.254.175-.465.386-.465h8.472c.211 0 .386.21.386.465s-.175.466-.386.466zM29.47 10.242h-8.473c-.21 0-.386-.21-.386-.465s.175-.466.386-.466h8.472c.211 0 .386.211.386.466 0 .254-.175.465-.386.465zM29.47 13.967h-8.473c-.21 0-.386-.211-.386-.466s.175-.465.386-.465h8.472c.211 0 .386.21.386.465s-.175.466-.386.466zM29.47 17.691h-8.473c-.21 0-.386-.21-.386-.465s.175-.466.386-.466h8.472c.211 0 .386.21.386.465s-.175.466-.386.466zM14.68 6.518H6.207c-.21 0-.385-.211-.385-.466 0-.254.174-.465.385-.465h8.473c.21 0 .385.21.385.465s-.175.466-.385.466zM14.68 10.242H6.207c-.21 0-.385-.21-.385-.465s.174-.466.385-.466h8.473c.21 0 .385.211.385.466 0 .254-.175.465-.385.465zM14.68 13.967H6.207c-.21 0-.385-.211-.385-.466s.174-.465.385-.465h8.473c.21 0 .385.21.385.465s-.175.466-.385.466zM14.68 17.691H6.207c-.21 0-.385-.21-.385-.465s.174-.466.385-.466h8.473c.21 0 .385.21.385.465s-.175.466-.385.466z" clip-rule="evenodd"/>
</svg>
