<?xml version="1.0" encoding="UTF-8"?>
<!DOCTYPE svg PUBLIC "-//W3C//DTD SVG 1.0//EN" "http://www.w3.org/TR/2001/REC-SVG-20010904/DTD/svg10.dtd">
<!-- Creator: CorelDRAW 2017 -->
<svg xmlns="http://www.w3.org/2000/svg" xml:space="preserve" width="100px" height="100px" version="1.0" shape-rendering="geometricPrecision" text-rendering="geometricPrecision" image-rendering="optimizeQuality" fill-rule="evenodd" clip-rule="evenodd"
viewBox="0 0 100 100"
 xmlns:xlink="http://www.w3.org/1999/xlink">
 <g id="Layer_x0020_1">
  <metadata id="CorelCorpID_0Corel-Layer"/>
  <path fill="#FEFEFE" d="M10.71 0c-5.91,0 -10.71,4.8 -10.71,10.71l0 21.43c0,5.92 4.8,10.72 10.71,10.72l21.43 0c5.92,0 10.72,-4.8 10.72,-10.72l0 -21.43c0,-5.91 -4.8,-10.71 -10.72,-10.71l-21.43 0zm17.86 14.29l0 14.28 -14.28 0 0 -14.28 14.28 0zm-17.86 42.85c-5.91,0 -10.71,4.8 -10.71,10.72l0 21.43c0,5.91 4.8,10.71 10.71,10.71l21.43 0c5.92,0 10.72,-4.8 10.72,-10.71l0 -21.43c0,-5.92 -4.8,-10.72 -10.72,-10.72l-21.43 0zm17.86 14.29l0 14.28 -14.28 0 0 -14.28 14.28 0zm28.57 -60.72l0 21.43c0,5.92 4.8,10.72 10.72,10.72l21.43 0c5.91,0 10.71,-4.8 10.71,-10.72l0 -21.43c0,-5.91 -4.8,-10.71 -10.71,-10.71l-21.43 0c-5.92,0 -10.72,4.8 -10.72,10.71zm14.29 3.58l14.28 0 0 14.28 -14.28 0 0 -14.28zm7.14 78.57l0 7.14 7.14 0 0 -7.14 -7.14 0zm21.43 0l-7.14 0 0 7.14 7.14 0 0 -7.14zm-7.14 -35.72l0 7.15 -14.29 0 0 -7.15 -21.43 0 0 21.43 0 21.43 14.29 0 0 -21.43 7.14 0 0 7.14 21.43 0 0 -14.28 0 -7.14 0 -7.15 -7.14 0z"/>
 </g>
</svg>
