<?xml version="1.0" encoding="UTF-8"?>
<!DOCTYPE svg PUBLIC "-//W3C//DTD SVG 1.1//EN" "http://www.w3.org/Graphics/SVG/1.1/DTD/svg11.dtd">
<!-- Creator: CorelDRAW 2017 -->
<svg xmlns="http://www.w3.org/2000/svg" xml:space="preserve" width="100px" height="100px" version="1.1" shape-rendering="geometricPrecision" text-rendering="geometricPrecision" image-rendering="optimizeQuality" fill-rule="evenodd" clip-rule="evenodd"
viewBox="0 0 100 100"
 xmlns:xlink="http://www.w3.org/1999/xlink">
 <g id="Layer_x0020_1">
  <metadata id="CorelCorpID_0Corel-Layer"/>
  <path fill="#FEFEFE" d="M62.5 10c0.78,0 1.53,0.37 2,1 5.42,7.24 12.2,11.7 20.86,17.42l0 0 0 0c0.81,0.53 1.64,1.1 2.5,1.66 4.51,3 7.14,8.08 7.14,13.45 0,4.47 -1.77,8.52 -4.66,11.47l-55.68 0c-2.88,-2.97 -4.66,-7.02 -4.66,-11.47 0,-5.37 2.61,-10.45 7.14,-13.45 0.84,-0.56 1.69,-1.11 2.5,-1.66l0 0 0 0c8.66,-5.72 15.44,-10.19 20.86,-17.42 0.47,-0.63 1.22,-1 2,-1l0 0zm-17.5 80l0 -11.25c0,-2.08 -1.67,-3.75 -3.75,-3.75 -2.08,0 -3.75,1.67 -3.75,3.75l0 11.25 -7.5 0c-2.77,0 -5,-2.24 -5,-5l0 -20c0,-2.77 2.23,-5 5,-5l65 0c2.77,0 5,2.24 5,5l0 20c0,2.77 -2.23,5 -5,5l-7.5 0 0 -11.25c0,-2.08 -1.67,-3.75 -3.75,-3.75 -2.08,0 -3.75,1.67 -3.75,3.75l0 11.25 -10 0 0 -9.06c0,-2.97 -1.31,-5.78 -3.59,-7.69l-3.91 -3.25 -3.91 3.25c-2.28,1.91 -3.59,4.72 -3.59,7.69l0 9.06 -10 0zm-34 -79.19c0.89,-0.67 2.11,-0.67 3,0l2.5 1.88c5.34,4.01 8.5,10.31 8.5,17l0 0.31 -25 0 0 -0.31c0,-6.69 3.16,-12.99 8.5,-17l2.5 -1.88 0 0zm-11 24.19l25 0 0 21.34c-2.99,1.74 -5,4.96 -5,8.66l0 20c0,1.5 0.33,2.91 0.91,4.19 -1.04,0.53 -2.19,0.81 -3.41,0.81l-10 0c-4.14,0 -7.5,-3.36 -7.5,-7.5l0 -45 0 -2.5z"/>
 </g>
</svg>
