<svg xmlns="http://www.w3.org/2000/svg" width="26" height="23" fill="none" viewBox="0 0 26 23">
  <path fill="#fff" d="M23.42 4.929H4.062a.817.817 0 01-.812-.822c0-.454.364-.821.813-.821h19.5a.817.817 0 00.812-.822c0-1.36-1.091-2.464-2.438-2.464H3.25C1.455 0 0 1.47 0 3.286v16.428C0 21.53 1.455 23 3.25 23h20.17c1.423 0 2.58-1.105 2.58-2.464V7.393c0-1.36-1.157-2.464-2.58-2.464zm-2.295 10.678a1.634 1.634 0 01-1.625-1.643c0-.907.728-1.643 1.625-1.643s1.625.736 1.625 1.643-.728 1.643-1.625 1.643z"/>
</svg>
