<svg xmlns="http://www.w3.org/2000/svg" width="35" height="35" fill="none" viewBox="0 0 35 35">
  <path fill="#fff" d="M11.621 12.916l.033.86 3.825-3.217-.17-4.41c-.026-.688.044-1.83.328-3.307.284-1.478.681-2.237 1.136-2.221 1.252.042 1.92 1.924 2.035 5.675l.167 4.353 4.081 3.485-.003-.83c-.056-.716.3-1.076.868-1.057.683.024 1.048.665 1.1 2.04l.083 1.404 2.868 2.214-.067-1.003c-.054-.66.274-.992.87-1 .683.023 1.071.522 1.106 1.439l.08 2.062c3.217 2.455 4.867 3.998 4.891 4.628a1.909 1.909 0 01-.306.905c-.216.278-.465.47-.72.49-.257-.037-.952-.404-2.032-1.156-1.136-.753-3.196-1.882-6.26-3.302-3.068-1.477-4.912-2.169-5.51-2.218-.227-.007-.391.159-.465.47-.102.283-.166 1.597-.107 3.858.087 2.291.021 4.263-.198 5.971.15.206.823.715 1.934 1.553 1.112.84 1.816 1.435 2.025 1.7.182.292.288.839.316 1.583.016.401-.003.658-.11.826-.74-.025-2.527-.715-5.303-2.01-3.025 1.098-4.766 1.61-5.22 1.595-.119-.118-.187-.407-.202-.807-.029-.745.036-1.286.252-1.565.16-.28.823-.773 1.902-1.508 1.05-.766 1.656-1.26 1.847-1.454-.407-1.73-.742-4.544-.896-8.553-.103-1.205-.352-1.786-.75-1.8-.598-.048-2.392.577-5.326 1.822-2.962 1.272-4.972 2.176-6.024 2.884-1.082.678-1.721 1.029-1.978.991-.255.02-.519-.189-.76-.54-.267-.324-.365-.642-.376-.928-.022-.573 1.484-2.038 4.55-4.308l-.107-2.034c-.006-.887.345-1.361 1.028-1.338.596-.008.923.375.947 1.005l.01 1.001L9.72 15.14l-.023-1.346c-.053-1.374.264-1.993.947-1.97.625.022.923.375.978 1.092z"/>
</svg>
