<?xml version="1.0" encoding="UTF-8"?>
<!DOCTYPE svg PUBLIC "-//W3C//DTD SVG 1.1//EN" "http://www.w3.org/Graphics/SVG/1.1/DTD/svg11.dtd">
<!-- Creator: CorelDRAW 2017 -->
<svg xmlns="http://www.w3.org/2000/svg" xml:space="preserve" width="100px" height="100px" version="1.1" shape-rendering="geometricPrecision" text-rendering="geometricPrecision" image-rendering="optimizeQuality" fill-rule="evenodd" clip-rule="evenodd"
viewBox="0 0 100 100"
 xmlns:xlink="http://www.w3.org/1999/xlink">
 <g id="Layer_x0020_1">
  <metadata id="CorelCorpID_0Corel-Layer"/>
  <path fill="#10824C" d="M15.25 23.43l34.75 13.91 34.75 -13.91 -34.75 -13.91 -34.75 13.91zm33.3 -23.15c0.95,-0.37 1.97,-0.37 2.91,0l39.03 15.63c2.02,0.8 3.41,3.22 3.41,5.96l0 3.12 0 0 0 4.14 -43.17 17.29c-0.47,0.2 -0.97,0.2 -1.45,0l-43.18 -17.28 0 -4.15 0 -3.12c0,-2.74 1.39,-5.16 3.43,-5.96l39.02 -15.63 0 0zm3.65 52.12l41.7 -16.7 0 9.08 -8.05 3.23c-1.28,0.5 -2,2.26 -1.6,3.9 0.4,1.65 1.77,2.56 3.05,2.05l6.6 -2.63 0 26.8c0,2.74 -1.39,5.16 -3.43,5.96l-39.02 15.63c-0.95,0.37 -1.97,0.37 -2.91,0l-39.02 -15.63c-2.03,-0.8 -3.42,-3.22 -3.42,-5.96l0 -26.8 6.59 2.64c1.28,0.5 2.65,-0.41 3.04,-2.05 0.4,-1.64 -0.32,-3.4 -1.6,-3.91l-8.03 -3.25 0 -9.06 41.72 16.7c1.42,0.57 2.94,0.57 4.36,0l0.02 0zm-28.28 -0.5c-1.28,-0.51 -2.65,0.41 -3.05,2.05 -0.4,1.64 0.32,3.4 1.6,3.9l9.76 3.91c1.28,0.51 2.65,-0.41 3.05,-2.05 0.39,-1.64 -0.33,-3.4 -1.61,-3.91l-9.75 -3.9zm53.65 5.95c1.28,-0.5 2,-2.26 1.6,-3.9 -0.39,-1.65 -1.76,-2.56 -3.04,-2.05l-9.76 3.9c-1.28,0.51 -2,2.27 -1.6,3.91 0.4,1.64 1.77,2.56 3.05,2.05l9.75 -3.91zm-34.14 1.86c-1.28,-0.51 -2.65,0.41 -3.05,2.05 -0.39,1.64 0.32,3.4 1.6,3.91l5.87 2.34c1.42,0.57 2.94,0.57 4.36,0l5.87 -2.34c1.28,-0.51 2,-2.27 1.6,-3.91 -0.4,-1.64 -1.77,-2.56 -3.05,-2.05l-5.87 2.34c-0.47,0.2 -0.97,0.2 -1.45,0l-5.87 -2.34 -0.01 0z"/>
 </g>
</svg>
