<?xml version="1.0" encoding="UTF-8"?>
<!DOCTYPE svg PUBLIC "-//W3C//DTD SVG 1.0//EN" "http://www.w3.org/TR/2001/REC-SVG-20010904/DTD/svg10.dtd">
<!-- Creator: CorelDRAW 2017 -->
<svg xmlns="http://www.w3.org/2000/svg" xml:space="preserve" width="8268px" height="8268px" version="1.0" shape-rendering="geometricPrecision" text-rendering="geometricPrecision" image-rendering="optimizeQuality" fill-rule="evenodd" clip-rule="evenodd"
viewBox="0 0 8268 8268"
 xmlns:xlink="http://www.w3.org/1999/xlink">
 <g id="Layer_x0020_1">
  <metadata id="CorelCorpID_0Corel-Layer"/>
  <g id="_1665384060336">
   <circle fill="#FDFFDE" cx="4134" cy="4134" r="4323.51"/>
   <g>
    <path fill="#DE9B00" d="M4134 7244.06c-1747.95,0 -3170,-1418.74 -3170,-3162.54 0,-1743.79 1422.3,-3162.53 3170,-3162.53 1747.73,0 3170,1418.74 3170,3162.53 0,1743.8 -1421.83,3162.54 -3170,3162.54zm0 -6140.85c-1644.85,0 -2984.66,1335.87 -2984.66,2977.66 0,1641.78 1339.81,2978.32 2984.66,2978.32 1644.88,0 2984.91,-1335.66 2984.91,-2977.66 0,-1642.04 -1338.94,-2977.66 -2984.91,-2977.66l0 -0.66z"/>
    <rect fill="#DE9B00" x="4110.76" y="743.53" width="46.77" height="361.06"/>
    <rect fill="#DE9B00" x="4110.76" y="7140.76" width="46.77" height="361.06"/>
    <rect fill="#DE9B00" transform="matrix(0.984747 -0.173992 0.173992 0.984747 3552.73 938.125)" width="36.46" height="219.11"/>
    <rect fill="#DE9B00" transform="matrix(0.984747 -0.173992 0.173992 0.984747 4641.41 7098.18)" width="36.46" height="219.11"/>
    <polygon fill="#DE9B00" points="3082.36,1292.8 3007.21,1087.02 3041.49,1074.53 3116.63,1280.4 "/>
    <polygon fill="#DE9B00" points="5226.8,7170.85 5151.65,6965.08 5185.96,6952.58 5261.07,7158.48 "/>
    <polygon fill="#DE9B00" points="2605.76,1518.01 2495.97,1328.35 2527.52,1310.14 2637.31,1499.88 "/>
    <polygon fill="#DE9B00" points="5740.76,6935.27 5631,6745.62 5662.53,6727.37 5772.32,6917.12 "/>
    <polygon fill="#DE9B00" points="2175.65,1822.39 2034.52,1654.61 2062.42,1631.17 2203.55,1799.05 "/>
    <polygon fill="#DE9B00" points="6205.89,6614.21 6064.73,6446.46 6092.73,6423.02 6233.79,6590.87 "/>
    <polygon fill="#DE9B00" points="1805,2196.66 1636.78,2055.87 1660.22,2027.97 1828.43,2168.76 "/>
    <polygon fill="#DE9B00" points="6608.07,6217.5 6439.85,6076.62 6463.28,6048.81 6631.5,6189.6 "/>
    <polygon fill="#DE9B00" points="1505.12,2629.39 1314.94,2519.91 1333.15,2488.36 1523.37,2597.87 "/>
    <polygon fill="#DE9B00" points="6935.13,5757.05 6744.92,5647.54 6763.16,5615.99 6953.38,5725.59 "/>
    <polygon fill="#DE9B00" points="1285.19,3107.55 1078.76,3032.6 1091.26,2998.42 1297.6,3073.34 "/>
    <polygon fill="#DE9B00" points="7177.02,5246.99 6970.69,5172.04 6983.18,5137.83 7189.52,5212.78 "/>
    <rect fill="#DE9B00" transform="matrix(0.173133 -0.984899 0.984899 0.173133 935.554 3578.59)" width="36.37" height="219.55"/>
    <rect fill="#DE9B00" transform="matrix(0.173133 -0.984899 0.984899 0.173133 7109.75 4664.2)" width="36.37" height="219.55"/>
    <rect fill="#DE9B00" x="747.04" y="4099.3" width="361.9" height="46.68"/>
    <rect fill="#DE9B00" x="7159.43" y="4099.3" width="361.9" height="46.68"/>
    <rect fill="#DE9B00" transform="matrix(0.984747 -0.173992 0.173992 0.984747 935.598 4666.88)" width="219.55" height="36.37"/>
    <rect fill="#DE9B00" transform="matrix(0.984747 -0.173992 0.173992 0.984747 7110.29 3580.46)" width="219.55" height="36.37"/>
    <polygon fill="#DE9B00" points="1091.35,5246.99 1078.86,5212.78 1285.19,5137.83 1297.6,5172.04 "/>
    <polygon fill="#DE9B00" points="6983.18,3107.55 6970.69,3073.34 7177.02,2998.42 7189.52,3032.6 "/>
    <polygon fill="#DE9B00" points="1333.25,5757.05 1315,5725.5 1505.12,5615.99 1523.37,5647.54 "/>
    <polygon fill="#DE9B00" points="6763.16,2629.39 6744.92,2597.87 6935.13,2488.36 6953.38,2519.82 "/>
    <polygon fill="#DE9B00" points="1660.22,6217.41 1636.78,6189.6 1805,6048.72 1828.43,6076.62 "/>
    <polygon fill="#DE9B00" points="6463.38,2196.57 6439.85,2168.76 6608.07,2027.88 6631.5,2055.78 "/>
    <polygon fill="#DE9B00" points="2062.42,6614.21 2034.52,6590.77 2175.65,6423.02 2203.55,6446.36 "/>
    <polygon fill="#DE9B00" points="6092.73,1822.39 6064.73,1798.95 6205.89,1631.17 6233.86,1654.51 "/>
    <polygon fill="#DE9B00" points="2527.62,6935.27 2495.97,6917.02 2605.76,6727.28 2637.38,6745.53 "/>
    <polygon fill="#DE9B00" points="5662.53,1518.01 5631,1499.79 5740.76,1310.14 5772.32,1328.26 "/>
    <polygon fill="#DE9B00" points="3041.49,7170.85 3007.21,7158.39 3082.36,6952.49 3116.63,6964.98 "/>
    <polygon fill="#DE9B00" points="5185.96,1292.8 5151.75,1280.3 5226.8,1074.53 5261.07,1086.93 "/>
    <rect fill="#DE9B00" transform="matrix(0.173133 -0.984899 0.984899 0.173133 3552.77 7307.14)" width="219.11" height="36.46"/>
    <rect fill="#DE9B00" transform="matrix(0.173133 -0.984899 0.984899 0.173133 4641.41 1147.18)" width="219.11" height="36.46"/>
    <rect fill="#DE9B00" transform="matrix(1 -0.03 0.03 1 4015.12 998.394)" width="15.59" height="108.23"/>
    <rect fill="#DE9B00" transform="matrix(0.999385 -0.0350739 0.0350739 0.999385 4233.11 7157.95)" width="15.59" height="108.23"/>
    <rect fill="#DE9B00" transform="matrix(1 -0.07 0.07 1 3915.51 986.7)" width="15.59" height="108.23"/>
    <rect fill="#DE9B00" transform="matrix(0.997552 -0.0699306 0.0699306 0.997552 4339.09 7152.73)" width="15.59" height="108.23"/>
    <rect fill="#DE9B00" transform="matrix(0.994504 -0.104702 0.104702 0.994504 3796.75 995.164)" width="15.59" height="108.23"/>
    <rect fill="#DE9B00" transform="matrix(0.994504 -0.104702 0.104702 0.994504 4444.35 7144.17)" width="15.59" height="108.23"/>
    <rect fill="#DE9B00" transform="matrix(0.990244 -0.139346 0.139346 0.990244 3687.58 1009.11)" width="15.59" height="108.23"/>
    <rect fill="#DE9B00" transform="matrix(0.990219 -0.139519 0.139519 0.990219 4550.14 7131.33)" width="15.59" height="108.32"/>
    <polygon fill="#DE9B00" points="3493.56,1153.57 3471.03,1047.63 3486.28,1044.44 3508.81,1150.29 "/>
    <rect fill="#DE9B00" transform="matrix(0.978039 -0.208424 0.208424 0.978039 4759.48 7094.93)" width="15.59" height="108.23"/>
    <polygon fill="#DE9B00" points="3390.08,1177.63 3363.8,1072.59 3378.96,1068.87 3405.2,1173.92 "/>
    <polygon fill="#DE9B00" points="4889.23,7176.51 4862.99,7071.5 4878.21,7067.75 4904.48,7172.79 "/>
    <polygon fill="#DE9B00" points="3287.5,1205.38 3257.6,1101.33 3272.63,1097.05 3302.53,1201.07 "/>
    <polygon fill="#DE9B00" points="4995.65,7148.45 4965.75,7044.31 4980.69,7040.03 5010.71,7144.14 "/>
    <polygon fill="#DE9B00" points="3185.93,1236.62 3152.47,1133.7 3167.31,1128.86 3200.77,1231.81 "/>
    <polygon fill="#DE9B00" points="5100.98,7116.52 5067.42,7013.57 5082.26,7008.76 5115.82,7111.77 "/>
    <polygon fill="#DE9B00" points="2986.53,1309.67 2945.85,1209.28 2960.35,1203.44 3000.93,1303.83 "/>
    <polygon fill="#DE9B00" points="5307.94,7042.03 5267.29,6941.65 5281.79,6935.8 5322.43,7036.19 "/>
    <polygon fill="#DE9B00" points="2888.77,1351.35 2844.65,1252.4 2858.96,1246.12 2903.08,1344.94 "/>
    <polygon fill="#DE9B00" points="5409.32,6999.35 5365.21,6900.43 5379.52,6894.15 5423.63,6992.98 "/>
    <polygon fill="#DE9B00" points="2792.57,1396.37 2745.08,1299.11 2759.01,1292.27 2806.63,1389.53 "/>
    <polygon fill="#DE9B00" points="5509.27,6953.24 5461.66,6855.85 5475.62,6849.01 5523.21,6946.39 "/>
    <polygon fill="#DE9B00" points="2698.02,1444.71 2647.16,1349.16 2660.9,1341.85 2711.8,1437.43 "/>
    <polygon fill="#DE9B00" points="5607.38,6903.53 5556.42,6807.98 5570.26,6800.67 5621.16,6896.25 "/>
    <polygon fill="#DE9B00" points="2514.31,1551.22 2456.75,1459.39 2469.97,1451.08 2527.52,1542.91 "/>
    <polygon fill="#DE9B00" points="5798.22,6794.3 5740.76,6702.47 5753.98,6694.19 5811.53,6785.99 "/>
    <polygon fill="#DE9B00" points="2425.32,1609.21 2364.68,1519.38 2377.61,1510.73 2438.26,1600.43 "/>
    <polygon fill="#DE9B00" points="5890.67,6734.65 5830.03,6644.95 5842.99,6636.3 5903.61,6726 "/>
    <polygon fill="#DE9B00" points="2338.4,1670.2 2274.69,1582.65 2287.25,1573.47 2351.09,1661.07 "/>
    <polygon fill="#DE9B00" points="5981.03,6671.95 5917.2,6584.4 5929.79,6575.18 5993.62,6662.82 "/>
    <polygon fill="#DE9B00" points="2253.7,1734.22 2186.96,1648.95 2199.27,1639.39 2266.01,1724.62 "/>
    <polygon fill="#DE9B00" points="6069.01,6606.11 6002.28,6520.76 6014.58,6511.19 6081.32,6596.52 "/>
    <polygon fill="#DE9B00" points="2091.32,1870.88 2018.74,1790.46 2030.3,1779.99 2102.88,1860.47 "/>
    <polygon fill="#DE9B00" points="6237.98,6465.42 6165.4,6384.91 6176.96,6374.5 6249.54,6455.02 "/>
    <polygon fill="#DE9B00" points="2013.81,1943.36 1938.41,1865.5 1949.63,1854.76 2025.02,1932.62 "/>
    <polygon fill="#DE9B00" points="6318.65,6390.75 6243.26,6312.86 6254.48,6302.01 6329.87,6379.87 "/>
    <polygon fill="#DE9B00" points="1938.85,2018.6 1860.8,1943.36 1871.68,1932.15 1949.72,2007.38 "/>
    <polygon fill="#DE9B00" points="6396.64,6313.33 6318.56,6238.09 6329.43,6226.87 6407.48,6302.11 "/>
    <polygon fill="#DE9B00" points="1866.55,2096.27 1785.94,2023.79 1796.44,2012.29 1877.05,2084.68 "/>
    <polygon fill="#DE9B00" points="6471.84,6233.18 6391.23,6160.79 6401.73,6149.11 6482.34,6221.59 "/>
    <polygon fill="#DE9B00" points="1730.42,2259.02 1644.91,2192.38 1654.47,2180.07 1740.01,2246.71 "/>
    <polygon fill="#DE9B00" points="6613.82,6065.31 6528.3,5998.67 6537.86,5986.45 6623.38,6053.09 "/>
    <polygon fill="#DE9B00" points="1666.68,2343.82 1578.89,2280.18 1588.1,2267.62 1675.81,2331.26 "/>
    <polygon fill="#DE9B00" points="6680.18,5977.79 6592.48,5914.15 6601.6,5901.56 6689.4,5965.2 "/>
    <polygon fill="#DE9B00" points="1605.98,2430.8 1515.96,2370.28 1524.74,2357.41 1614.63,2417.96 "/>
    <polygon fill="#DE9B00" points="6743.57,5888.06 6653.56,5827.51 6662.31,5814.57 6752.32,5875.13 "/>
    <polygon fill="#DE9B00" points="1548.24,2519.91 1456.35,2462.55 1464.53,2449.33 1556.55,2506.67 "/>
    <polygon fill="#DE9B00" points="6803.75,5796.14 6711.74,5738.71 6720.05,5725.59 6812.03,5782.93 "/>
    <polygon fill="#DE9B00" points="1442.57,2703.72 1346.74,2652.92 1354.02,2639.17 1449.88,2689.94 "/>
    <polygon fill="#DE9B00" points="6914.26,5606.24 6818.43,5555.44 6825.81,5541.66 6921.54,5592.46 "/>
    <polygon fill="#DE9B00" points="1394.52,2798.36 1297.06,2750.87 1303.88,2736.9 1401.36,2784.33 "/>
    <polygon fill="#DE9B00" points="6964.5,5508.57 6866.93,5461.08 6873.77,5447.11 6971.34,5494.54 "/>
    <polygon fill="#DE9B00" points="1349.84,2894.56 1250.73,2850.41 1257.1,2836.2 1356.24,2880.31 "/>
    <polygon fill="#DE9B00" points="7011.18,5409.18 6912.07,5365.16 6918.45,5350.91 7017.55,5394.97 "/>
    <polygon fill="#DE9B00" points="1308.62,2992.2 1208.05,2951.64 1213.89,2937.21 1314.47,2977.8 "/>
    <polygon fill="#DE9B00" points="7054.39,5308.26 6953.82,5267.68 6959.66,5253.18 7060.33,5293.77 "/>
    <polygon fill="#DE9B00" points="1236.42,3191.63 1133.28,3158.17 1138.13,3143.3 1241.26,3176.76 "/>
    <polygon fill="#DE9B00" points="7130.25,5102.08 7027.05,5068.62 7031.86,5053.87 7135.09,5087.24 "/>
    <polygon fill="#DE9B00" points="1205.61,3293.02 1101.38,3263.18 1105.66,3248.24 1209.99,3278.05 "/>
    <rect fill="#DE9B00" transform="matrix(0.275134 -0.961406 0.961406 0.275134 7058.01 4966.86)" width="15.59" height="108.51"/>
    <rect fill="#DE9B00" transform="matrix(0.241414 -0.970422 0.970422 0.241414 1073.18 3369.11)" width="15.59" height="108.51"/>
    <polygon fill="#DE9B00" points="7191.43,4891.19 7086.13,4865.03 7089.85,4849.88 7195.18,4876.06 "/>
    <rect fill="#DE9B00" transform="matrix(0.207741 -0.978184 0.978184 0.207741 1048.67 3476.42)" width="15.59" height="108.51"/>
    <polygon fill="#DE9B00" points="7216.42,4784.24 7110.29,4761.71 7113.47,4746.49 7219.7,4769.02 "/>
    <rect fill="#DE9B00" transform="matrix(0.138827 -0.990317 0.990317 0.138827 1010.89 3692.41)" width="15.59" height="108.51"/>
    <rect fill="#DE9B00" transform="matrix(0.14 -0.99 0.99 0.14 7154.12 4559.87)" width="15.59" height="108.51"/>
    <rect fill="#DE9B00" transform="matrix(0.104528 -0.994522 0.994522 0.104528 997.843 3801.67)" width="15.59" height="108.51"/>
    <rect fill="#DE9B00" transform="matrix(0.104528 -0.994522 0.994522 0.104528 7161 4447.96)" width="15.59" height="108.51"/>
    <rect fill="#DE9B00" transform="matrix(0.07 -1 1 0.07 997.539 3910.34)" width="15.59" height="108.51"/>
    <rect fill="#DE9B00" transform="matrix(0.0694083 -0.997588 0.997588 0.0694083 7170.06 4342.1)" width="15.59" height="108.51"/>
    <rect fill="#DE9B00" transform="matrix(0.0350739 -0.999385 0.999385 0.0350739 982.989 4020.82)" width="15.59" height="108.51"/>
    <rect fill="#DE9B00" transform="matrix(0.0348995 -0.999391 0.999391 0.0348995 7176.77 4236.84)" width="15.59" height="108.51"/>
    <rect fill="#DE9B00" transform="matrix(1 -0.03 0.03 1 964.093 4230.75)" width="108.51" height="15.59"/>
    <rect fill="#DE9B00" transform="matrix(0.999391 -0.0348995 0.0348995 0.999391 7176.34 4008.88)" width="108.51" height="15.59"/>
    <rect fill="#DE9B00" transform="matrix(0.997564 -0.0697565 0.0697565 0.997564 988.707 4334.35)" width="108.51" height="15.59"/>
    <rect fill="#DE9B00" transform="matrix(0.997564 -0.0697565 0.0697565 0.997564 7170.56 3902.78)" width="108.51" height="15.59"/>
    <rect fill="#DE9B00" transform="matrix(0.994504 -0.104702 0.104702 0.994504 998.046 4443.68)" width="108.51" height="15.59"/>
    <rect fill="#DE9B00" transform="matrix(0.994449 -0.105223 0.105223 0.994449 7161.09 3797.14)" width="108.51" height="15.59"/>
    <rect fill="#DE9B00" transform="matrix(0.990219 -0.139519 0.139519 0.990219 1010.97 4552.78)" width="108.51" height="15.59"/>
    <rect fill="#DE9B00" transform="matrix(0.990219 -0.139519 0.139519 0.990219 7147.72 3692.35)" width="108.51" height="15.59"/>
    <polygon fill="#DE9B00" points="1051.86,4784.24 1048.67,4769.02 1154.81,4746.49 1158,4761.71 "/>
    <polygon fill="#DE9B00" points="7113.57,3498.89 7110.29,3483.58 7216.42,3461.14 7219.7,3476.36 "/>
    <rect fill="#DE9B00" transform="matrix(0.970169 -0.24243 0.24243 0.970169 1073.14 4876.13)" width="108.51" height="15.59"/>
    <polygon fill="#DE9B00" points="7089.85,3395.5 7086.13,3380.34 7191.43,3354.19 7195.18,3369.32 "/>
    <polygon fill="#DE9B00" points="1105.66,4997.17 1101.38,4982.2 1205.68,4952.39 1209.99,4967.33 "/>
    <polygon fill="#DE9B00" points="7062.7,3293.02 7058.42,3278.05 7162.71,3248.24 7166.99,3263.18 "/>
    <polygon fill="#DE9B00" points="1138.13,5102.08 1133.28,5087.24 1236.51,5053.87 1241.26,5068.62 "/>
    <polygon fill="#DE9B00" points="7031.86,3191.54 7027.05,3176.76 7130.25,3143.3 7135,3158.17 "/>
    <polygon fill="#DE9B00" points="1213.89,5308.17 1208.05,5293.77 1308.62,5253.18 1314.47,5267.68 "/>
    <polygon fill="#DE9B00" points="6959.66,2992.2 6953.82,2977.7 7054.48,2937.15 7060.33,2951.64 "/>
    <polygon fill="#DE9B00" points="1257.1,5409.09 1250.73,5394.97 1349.93,5350.91 1356.24,5365.07 "/>
    <polygon fill="#DE9B00" points="6918.45,2894.47 6912.07,2880.25 7011.18,2836.2 7017.55,2850.41 "/>
    <polygon fill="#DE9B00" points="1303.88,5508.48 1297.06,5494.54 1394.52,5447.11 1401.36,5461.08 "/>
    <polygon fill="#DE9B00" points="6873.77,2798.27 6866.93,2784.33 6964.5,2736.81 6971.34,2750.87 "/>
    <polygon fill="#DE9B00" points="1354.12,5606.24 1346.74,5592.46 1442.57,5541.66 1449.88,5555.44 "/>
    <polygon fill="#DE9B00" points="6825.81,2703.72 6818.43,2689.94 6914.26,2639.17 6921.54,2652.92 "/>
    <polygon fill="#DE9B00" points="1464.53,5796.08 1456.35,5782.83 1548.33,5725.5 1556.64,5738.71 "/>
    <polygon fill="#DE9B00" points="6720.05,2519.82 6711.74,2506.67 6803.75,2449.24 6812.03,2462.45 "/>
    <polygon fill="#DE9B00" points="1524.74,5887.97 1516.05,5875.13 1605.98,5814.57 1614.72,5827.51 "/>
    <polygon fill="#DE9B00" points="6662.31,2430.8 6653.56,2417.87 6743.57,2357.32 6752.32,2370.28 "/>
    <polygon fill="#DE9B00" points="1588.1,5977.79 1578.89,5965.2 1666.68,5901.56 1675.9,5914.15 "/>
    <polygon fill="#DE9B00" points="6601.6,2343.82 6592.48,2331.26 6680.27,2267.62 6689.4,2280.18 "/>
    <polygon fill="#DE9B00" points="1654.56,6065.31 1644.91,6053 1730.42,5986.36 1740.01,5998.67 "/>
    <polygon fill="#DE9B00" points="6537.86,2258.93 6528.3,2246.71 6613.82,2180.07 6623.38,2192.38 "/>
    <polygon fill="#DE9B00" points="1796.44,6233.18 1785.94,6221.59 1866.55,6149.11 1877.05,6160.7 "/>
    <polygon fill="#DE9B00" points="6401.73,2096.18 6391.23,2084.68 6471.94,2012.19 6482.34,2023.79 "/>
    <polygon fill="#DE9B00" points="1871.68,6313.23 1860.8,6302.01 1938.85,6226.87 1949.72,6238 "/>
    <polygon fill="#DE9B00" points="6329.43,2018.51 6318.56,2007.29 6396.7,1932.05 6407.57,1943.27 "/>
    <polygon fill="#DE9B00" points="1949.72,6390.65 1938.41,6379.87 2013.81,6302.01 2025.02,6312.76 "/>
    <polygon fill="#DE9B00" points="6254.48,1943.36 6243.26,1932.52 6318.65,1854.66 6329.87,1865.5 "/>
    <polygon fill="#DE9B00" points="2030.3,6465.33 2018.74,6454.92 2091.32,6374.5 2102.98,6384.91 "/>
    <polygon fill="#DE9B00" points="6176.96,1870.88 6165.4,1860.41 6237.98,1779.99 6249.54,1790.46 "/>
    <polygon fill="#DE9B00" points="2199.27,6606.02 2186.96,6596.43 2253.79,6511.19 2266.1,6520.76 "/>
    <polygon fill="#DE9B00" points="6014.58,1734.12 6002.28,1724.53 6069.11,1639.3 6081.32,1648.86 "/>
    <polygon fill="#DE9B00" points="2287.35,6671.95 2274.69,6662.73 2338.5,6575.18 2351.09,6584.31 "/>
    <polygon fill="#DE9B00" points="5929.79,1670.2 5917.2,1660.98 5981.03,1573.47 5993.62,1582.56 "/>
    <polygon fill="#DE9B00" points="2377.61,6734.65 2364.68,6725.9 2425.32,6636.2 2438.26,6644.95 "/>
    <polygon fill="#DE9B00" points="5842.99,1609.11 5830.03,1600.43 5890.67,1510.63 5903.61,1519.38 "/>
    <polygon fill="#DE9B00" points="2470.06,6794.2 2456.85,6785.99 2514.31,6694.19 2527.52,6702.47 "/>
    <polygon fill="#DE9B00" points="5753.98,1551.13 5740.76,1542.91 5798.22,1451.08 5811.53,1459.39 "/>
    <polygon fill="#DE9B00" points="2660.9,6903.53 2647.16,6896.25 2698.02,6800.58 2711.89,6807.89 "/>
    <polygon fill="#DE9B00" points="5570.26,1444.71 5556.52,1437.43 5607.38,1341.76 5621.22,1349.07 "/>
    <polygon fill="#DE9B00" points="2759.1,6953.14 2745.08,6946.3 2792.66,6849.01 2806.72,6855.85 "/>
    <polygon fill="#DE9B00" points="5475.62,1396.37 5461.66,1389.53 5509.27,1292.17 5523.3,1299.02 "/>
    <polygon fill="#DE9B00" points="2858.96,6999.26 2844.65,6992.98 2888.86,6894.06 2903.08,6900.43 "/>
    <polygon fill="#DE9B00" points="5379.52,1351.26 5365.3,1344.94 5409.42,1246.03 5423.63,1252.4 "/>
    <polygon fill="#DE9B00" points="2960.35,7041.94 2945.85,7036.1 2986.53,6935.71 3001.03,6941.55 "/>
    <polygon fill="#DE9B00" points="5281.79,1309.58 5267.29,1303.73 5307.94,1203.44 5322.43,1209.28 "/>
    <polygon fill="#DE9B00" points="3167.31,7116.52 3152.47,7111.71 3186.02,7008.76 3200.86,7013.57 "/>
    <polygon fill="#DE9B00" points="5082.26,1236.56 5067.51,1231.81 5100.98,1128.77 5115.82,1133.61 "/>
    <polygon fill="#DE9B00" points="3272.63,7148.36 3257.6,7144.04 3287.6,7040.03 3302.53,7044.31 "/>
    <polygon fill="#DE9B00" points="4980.78,1205.38 4965.75,1201.07 4995.65,1096.96 5010.71,1101.24 "/>
    <polygon fill="#DE9B00" points="3379.05,7176.51 3363.9,7172.7 3390.08,7067.65 3405.2,7071.5 "/>
    <polygon fill="#DE9B00" points="4878.21,1177.63 4863.08,1173.92 4889.33,1068.78 4904.48,1072.59 "/>
    <rect fill="#DE9B00" transform="matrix(0.207741 -0.978184 0.978184 0.207741 3471.19 7198.03)" width="108.23" height="15.59"/>
    <polygon fill="#DE9B00" points="4774.72,1153.48 4759.42,1150.29 4782.04,1044.44 4797.35,1047.72 "/>
    <rect fill="#DE9B00" transform="matrix(0.138827 -0.990317 0.990317 0.138827 3687.46 7235.81)" width="108.32" height="15.59"/>
    <rect fill="#DE9B00" transform="matrix(0.138827 -0.990317 0.990317 0.138827 4549.77 1113.92)" width="108.32" height="15.59"/>
    <rect fill="#DE9B00" transform="matrix(0.104181 -0.994558 0.994558 0.104181 3796.85 7249.99)" width="108.23" height="15.59"/>
    <rect fill="#DE9B00" transform="matrix(0.104181 -0.994558 0.994558 0.104181 4444.6 1101.32)" width="108.32" height="15.59"/>
    <rect fill="#DE9B00" transform="matrix(0.0694083 -0.997588 0.997588 0.0694083 3906.39 7259.55)" width="108.23" height="15.59"/>
    <rect fill="#DE9B00" transform="matrix(0.0694083 -0.997588 0.997588 0.0694083 4338.59 1092.33)" width="108.23" height="15.59"/>
    <rect fill="#DE9B00" transform="matrix(0.0347251 -0.999397 0.999397 0.0347251 4016.21 7265.68)" width="108.23" height="15.59"/>
    <rect fill="#DE9B00" transform="matrix(0.04 -1 1 0.04 4251.7 1088.24)" width="108.23" height="15.59"/>
    <polygon fill="#DE9B00" points="7818.37,4107.05 7685.9,4107.05 7685.9,4229.59 7833.53,4229.59 7833.53,4266.08 7642.03,4266.08 7642.03,3926.43 7826.06,3926.43 7826.06,3962.89 7685.9,3962.89 7685.9,4070.31 7818.37,4070.31 "/>
    <path fill="#DE9B00" d="M7842.65 4275.46l-209.71 0 0 -358.06 202.21 0 0 54.71 -140.13 0 0 89.17 132.48 0 0 54.71 -132.48 0 0 104.41 147.63 0 0 55.06 0 0zm-191.5 -18.25l173.25 0 0 -18.68 -147.63 0 0 -140.6 132.51 0 0 -18.22 -132.51 0 0 -125.57 140.07 0 0 -18.21 -165.78 0 0.09 321.28 0 0z"/>
    <g id="_2207214255792">
     <path fill="#DE9B00" d="M4214.3 510.26c-1.78,-33.18 -2.25,-66.3 -2.25,-99.67l0.03 -151.41 58.49 0 0 356.9 -57.71 0 -110.67 -176.4c-17.15,-26.59 -33.15,-53.99 -47.93,-82.02 1.38,34.71 1.78,69.4 1.78,104.2l-0.03 154.22 -58.3 0 0 -356.9 61.24 0 111.92 175.9c15.53,24.4 30.02,49.49 43.43,75.18l0 0z"/>
    </g>
    <path fill="#DE9B00" d="M4006.21 607.58l0 -339.9 48.06 0 109.41 171.97c22.53,35.52 43.06,72.55 60.99,110.63l1 0c-4.12,-45.58 -5.12,-86.79 -5.12,-139.69l0.03 -142.91 41.49 0 0 339.9 -44.49 0 -108.23 -172.5c-23.47,-36.37 -44.84,-74.45 -63.8,-113.44l-1.56 0c2.56,42.83 3.56,83.7 3.56,140.22l-0.03 145.72 -41.31 0 0 0z"/>
    <path fill="#DE9B00" d="M4118.5 8008.82c-33.65,0 -71.48,-9.12 -91.98,-23.28l-5.65 -3.72 16.49 -54.7 10.13 6.18c22.4,13.34 47.96,20.56 74.01,20.81 38.4,0 62.21,-18.25 62.21,-48.86 0,-23.28 -9.12,-40.4 -58.36,-59.09 -64.46,-22.81 -95.83,-57.08 -95.83,-104.85 0,-59.74 49.05,-101.42 119.26,-101.42 1.66,-0.03 3.37,-0.1 5.06,-0.1 26.06,0 51.74,6.32 74.83,18.31l6.56 3.66 -18.24 53.24 -9.13 -5.19c-18.34,-9.84 -38.87,-15.03 -59.67,-15.03 -0.22,0 -0.47,0 -0.69,0 -40.68,0 -54.71,22.53 -54.71,41.84 0,25.09 15.06,38.93 61.93,57.08 64.98,25 92.7,57.46 92.7,108.33 -0.53,49.14 -33.71,106.79 -128.92,106.79l0 0z"/>
    <path fill="#DE9B00" d="M298.44 4022.25l32.31 124.11c7.09,27.33 13.65,52.42 18.21,77.67l1.56 0c5.57,-24.68 13.6,-50.96 21.69,-77.21l39.96 -124.57 37.37 0 37.93 122.11c9.12,29.24 16.24,54.7 21.81,79.67l1.43 0c4.75,-26.59 11.13,-53.3 18.72,-79.27l34.93 -122.54 43.93 0.03 -78.89 244.08 -40.37 0 -37.4 -116.41c-8.59,-26.28 -15.9,-53.27 -21.75,-80.27l-1.03 0.03c-5.72,27.18 -13.28,54.37 -22.21,80.67l-39.4 115.98 -40.53 0 -73.76 -244.08 45.49 0 0 0z"/>
    <path fill="#DE9B00" d="M536.08 4275.46l-53.71 0 -39.49 -122.82c-5.03,-15.94 -9.12,-30.72 -13.5,-45.59 -4.56,16.59 -9.12,31.99 -14.12,46.43l-41.58 122.26 -53.71 0 -79.33 -262.61 64.83 0 34.12 130.95c3.9,14.96 7.65,29.27 10.93,43.3 4.1,-14.4 8.56,-28.9 13.03,-43.21l41.96 -131.04 50.77 0 39.65 128.48c4.94,15.96 9.13,30.65 12.97,44.39 3.56,-14.84 7.56,-29.52 11.5,-43.64l36.46 -129.23 63.83 0 -84.61 262.33zm-40.4 -18.25l27.34 0 72.96 -225.93 -24.72 0 -32.99 116.08c-7.47,25.55 -13.72,51.8 -18.25,78.11l-1.28 7.65 -16.78 0.03 -1.62 -7.12c-5.41,-23.97 -12.25,-49.05 -21.53,-79.05l-35.93 -115.6 -24.06 0 -37.93 118.54c-7.84,25.53 -16.06,51.96 -21.52,76.39l-1.57 7.12 -16.87 0 -1.25 -7.56c-4.5,-24.71 -11.06,-49.8 -18.24,-76.42l-30.09 -118.07 -26.18 0 68.29 225.92 27.37 0 37.28 -109.85c8.81,-26.06 16.25,-52.77 21.96,-79.58l1.57 -7.22 15.77 0 1.57 7.19c5.75,26.68 13.09,53.43 21.52,79.39l35.18 109.98z"/>
    <path fill="#DE9B00" d="M6812.4 1295.27l134.04 -133.13 22.15 22.15 -17.15 117.82c-3.44,24.12 -8.59,48.12 -15.31,71.52l0.66 0c16.4,-19.97 34.12,-39.12 52.64,-57.12l56.18 -55.7 19.06 19.15 -134.04 133.13 -20.52 -20.53 18.24 -117.54c3.56,-24.81 8.81,-49.68 15.47,-73.86l-0.91 0c-15.68,18.22 -31.37,34.37 -53.61,56.52l-57.27 56.9 -19.62 -19.31 -0.01 0z"/>
    <polygon fill="#DE9B00" points="7109.82,1467.86 7048.74,1406.68 7000.4,1454.74 7068.45,1522.85 7053.95,1537.25 6965.69,1448.8 7099.73,1315.7 7184.52,1400.65 7170.28,1415.09 7105.72,1350.44 7063.42,1392.47 7124.41,1453.64 "/>
    <path fill="#DE9B00" d="M1274.35 1519.57l-133.38 -133.76 22.24 -22.06 117.98 17.5c24.22,3.34 48.24,8.53 71.68,15.34l0 -0.66c-19.94,-16.46 -39.15,-34.15 -57.21,-52.64l-55.8 -55.99 19.15 -19.06 133.51 133.79 -20.63 20.4 -117.79 -18.22c-24.87,-3.43 -49.8,-8.68 -74.01,-15.4l0 0.91c18.24,15.77 34.49,31.36 56.64,53.52l57.05 57.17 -19.43 19.16 0 0z"/>
    <path fill="#DE9B00" d="M1454.07 1341.13l-173.25 -94.01 21.53 -21.34 86.17 49.05c21.34,12.03 42.21,24.53 57.89,34.56l0.44 0c-12.12,-18.97 -23.4,-38.99 -33.43,-59.21l-46.52 -88.95 21.33 -21.15 86.89 48.77c19.38,10.56 38.53,22.4 56.74,34.93l0 0c-11.31,-18.25 -21.71,-37.21 -33.46,-58.8l-46.49 -88.08 20.78 -20.71 89.23 177.99 -21.34 21.16 -89.36 -49.9c-18.56,-9.97 -36.65,-21.22 -53.8,-33.46l-0.53 0c11.59,17.9 22.18,36.61 31.49,55.8l46.96 91.92 -21.27 21.43 0 0z"/>
    <path fill="#DE9B00" d="M1594.38 6908.81c-5.46,-16.91 -14.84,-32.37 -27.33,-45.06 -20.78,-20.77 -42.21,-23.68 -55.71,-10.18 -13.5,13.49 -11.31,27.9 2.9,56.05 18.25,33.37 22.34,60.55 3.47,79.33 -20.87,20.71 -56.61,15.78 -87.17,-14.75 -12.22,-11.59 -21.87,-25.71 -28.15,-41.34l19.68 -8.37c5.13,13.69 13.16,26.15 23.53,36.46 21.43,21.44 40.46,18.78 49.58,9.69 12.59,-12.5 9.13,-28.18 -5.28,-56.99 -18.24,-35.31 -20.43,-59.74 -0.71,-79.23 19.68,-19.53 56.52,-20.35 93.54,16.77 13.97,13.63 24.81,30.28 31.56,48.59l-19.9 9.03 -0.01 0z"/>
    <path fill="#DE9B00" d="M1472.31 6744.34l-94.29 173.21 -21.43 -21.15 49.24 -86.04c12.02,-21.25 24.52,-42.06 34.65,-57.74l-0.47 0c-19.12,12.09 -39.03,23.37 -59.3,33.4l-88.55 46.11 -21.18 -22.15 48.96 -86.64c10.65,-19.43 22.43,-38.43 35.05,-56.58l-0.56 0c-18.22,11.31 -37.27,21.68 -58.9,33.37l-88.39 45.93 -20.68 -20.78 178.53 -88.55 21.15 21.25 -49.96 89.17c-9.93,18.56 -21.31,36.59 -33.58,53.71l0.53 0.44c17.87,-11.5 36.68,-22 55.83,-31.25l92.11 -46.86 21.24 21.15 0 0z"/>
    <polygon fill="#DE9B00" points="6787.88,1530.41 6575.23,1742.59 6601.23,1768.49 6813.87,1556.31 "/>
    <polygon fill="#DE9B00" points="1783.13,6523.5 1570.51,6735.59 1596.48,6761.46 1809.12,6549.31 "/>
    <polygon fill="#DE9B00" points="6555.02,6477.36 6529.11,6503.26 6741.73,6715.34 6767.63,6689.54 "/>
    <polygon fill="#DE9B00" points="1524.37,1510.26 1736.98,1722.34 1762.88,1696.44 1550.27,1484.36 "/>
    <path fill="#DE9B00" d="M7017.65 6678.6c-17.09,5.44 -32.75,14.81 -45.59,27.34 -20.78,20.62 -23.71,42.02 -10.22,55.52 13.5,13.5 28,11.31 56.28,-2.91 33.46,-17.77 60.61,-22.34 79.42,-3.46 20.78,20.87 15.93,56.52 -14.78,86.98 -11.59,12.22 -25.75,21.84 -41.4,28.09l-7.84 -19.34c13.65,-5.06 26.12,-13.03 36.46,-23.34 21.15,-21.59 18.25,-40.49 9.12,-49.59 -12.4,-12.49 -28.18,-9.12 -57.08,5.38 -35.37,17.78 -59.8,20.34 -79.42,0.62 -19.59,-19.68 -20.4,-56.33 16.78,-93.26 13.68,-14 30.4,-24.78 48.77,-31.46l9.5 19.43 0 0z"/>
    <polygon fill="#DE9B00" points="6859.46,6918.65 6920.73,6857.75 6872.58,6809.61 6804.28,6877.44 6789.88,6862.94 6878.52,6774.86 7011.99,6908.62 6926.82,6993.17 6912.32,6978.48 6977.15,6914.12 6934.94,6871.81 6873.67,6932.9 "/>
   </g>
   <circle fill="none" stroke="#DE9B00" stroke-width="80" stroke-miterlimit="2.61313" cx="4134" cy="4134" r="2673.45"/>
   <circle fill="#DE9B00" cx="4134" cy="4134" r="1879.23"/>
  </g>
 </g>
</svg>
