<?xml version="1.0" encoding="UTF-8"?>
<!DOCTYPE svg PUBLIC "-//W3C//DTD SVG 1.0//EN" "http://www.w3.org/TR/2001/REC-SVG-20010904/DTD/svg10.dtd">
<!-- Creator: CorelDRAW 2017 -->
<svg xmlns="http://www.w3.org/2000/svg" xml:space="preserve" width="3898px" height="2480px" version="1.0" shape-rendering="geometricPrecision" text-rendering="geometricPrecision" image-rendering="optimizeQuality" fill-rule="evenodd" clip-rule="evenodd"
viewBox="0 0 3898 2480.55"
 xmlns:xlink="http://www.w3.org/1999/xlink">
 <g id="Layer_x0020_1">
  <metadata id="CorelCorpID_0Corel-Layer"/>
  <path fill="none" d="M2020.74 1238.89c-0.03,39.55 -32.12,71.59 -71.66,71.59 -0.03,0 -0.05,0 -0.08,0l0 1170.03 144.79 -1199.08c2.59,-11.07 3.91,-22.44 3.91,-33.82 0,-81.85 -66.38,-148.22 -148.22,-148.22 -0.15,0 -0.33,0 -0.47,0l-0.01 67.92c0.03,0 0.05,0 0.08,0 39.54,0 71.63,32.03 71.66,71.58l0 0z"/>
  <path fill="none" d="M1800.3 1247.73c0.02,11.32 1.36,22.65 3.95,33.67l144.75 1199.15 0 0 0 -1170.07c-39.53,0 -71.58,-32.06 -71.58,-71.59 0,-39.53 32.05,-71.58 71.58,-71.58l0 -67.92 0 0c-0.03,0 -0.12,0 -0.16,0 -81.95,0 -148.43,66.39 -148.53,148.34l-0.01 0z"/>
  <path fill="#892121" d="M1877.26 1241.65c0.03,-39.56 32.14,-71.62 71.7,-71.62 0.01,0 0.04,0 0.04,0l0 -1170.03 -144.75 1199.11c-2.58,11.08 -3.92,22.48 -3.92,33.86 0,81.85 66.38,148.22 148.22,148.22 0.15,0 0.31,0 0.46,0l-0.01 -67.95c-0.03,0 -0.05,0 -0.08,0 -39.54,0 -71.63,-32.04 -71.66,-71.59l0 0z"/>
  <path fill="#682121" d="M2097.7 1232.77c-0.02,-11.33 -1.36,-22.63 -3.94,-33.66l-144.76 -1199.11 0 0 0 1170.03c0.55,-0.01 1.12,-0.02 1.68,-0.02 39.55,0 71.63,32.07 71.63,71.62 0,39.55 -32.08,71.63 -71.63,71.63 -0.56,0 -1.13,-0.01 -1.68,-0.02l0 67.95 0 0c0.03,0 0.12,0 0.16,0 81.98,0 148.48,-66.42 148.54,-148.41l0 -0.01z"/>
  <g id="_2172684057088">
   <path fill="#505050" d="M1640.55 1039.4l0 437.51c0.02,8.31 5.69,15.55 13.75,17.54l70.93 17.74 72.44 -36.51 84.58 75.86 61.73 15.45c1.42,0.38 2.89,0.57 4.36,0.57 0.01,0 0.03,0 0.04,0 1.49,0 2.97,-0.19 4.42,-0.57l290.06 -72.54c8.19,-1.85 14.02,-9.13 14.03,-17.54l0 -437.51 -308.17 77.09 -308.17 -77.09z"/>
   <path fill="#373737" d="M1948.72 1116.49l0 451.07c0.01,0 0.03,0 0.04,0 1.49,0 2.97,-0.19 4.42,-0.57l290.06 -72.54c8.02,-2 13.65,-9.21 13.65,-17.48 0,-0.02 0,-0.04 0,-0.06l0 -437.51 -308.17 77.09z"/>
   <path fill="#FFE132" d="M1640.55 1088.71l0 109.9 303.43 75.86c1.45,0.31 2.93,0.47 4.41,0.47 1.48,0 2.96,-0.16 4.41,-0.47l303.43 -75.86 0 -109.9 -307.51 77 -308.17 -77z"/>
   <path fill="#FAC80F" d="M1953.46 1274.56l303.43 -75.85 0 -110 -308.17 77 0 109.33c0.03,0 0.07,0 0.1,0 1.56,0 3.12,-0.16 4.64,-0.48l0 0z"/>
   <path fill="#646464" d="M1948.72 1130.06c-1.47,-0.01 -2.94,-0.2 -4.36,-0.58l-290.06 -72.53c-8.01,-2.06 -13.61,-9.28 -13.61,-17.55 0,-8.26 5.6,-15.48 13.61,-17.54l289.68 -72.54c1.44,-0.37 2.92,-0.57 4.41,-0.57 1.49,0 2.97,0.2 4.41,0.57l290.06 72.54c8,2.06 13.6,9.28 13.6,17.54 0,8.27 -5.6,15.49 -13.6,17.55l-289.4 72.53c-1.44,0.38 -2.94,0.58 -4.43,0.58 -0.1,0 -0.21,0 -0.31,0z"/>
   <path fill="#505050" d="M1953.46 1129.48l290.06 -72.54c8.01,-2.05 13.61,-9.27 13.61,-17.54 0,-8.26 -5.6,-15.48 -13.61,-17.54l-290.06 -72.54c-1.44,-0.37 -2.93,-0.56 -4.42,-0.56 -0.01,0 -0.02,0 -0.04,0l0 181.3c0.02,0 0.03,0 0.04,0 1.49,0 2.98,-0.2 4.42,-0.57l0 -0.01z"/>
   <path fill="#FFE132" d="M1868.59 1353.55l-120.89 -30.25c-1.42,-0.35 -2.89,-0.53 -4.36,-0.53 -10,0 -18.11,8.11 -18.11,18.11 0,0.02 0,0.04 0,0.06l-0.01 171.25 157.03 39.25 0 -180.16c0,-0.06 0,-0.12 0,-0.18 0,-8.28 -5.63,-15.51 -13.65,-17.55l-0.01 0z"/>
   <polygon fill="#FAC80F" points="1761.45,1521.29 1846.03,1542.44 1846.03,1385.31 1761.44,1364.17 "/>
  </g>
 </g>
</svg>
